<svg width="85" height="83" viewBox="0 0 85 83" fill="none" xmlns="http://www.w3.org/2000/svg">
<g clip-path="url(#clip0_410_31)">
<path d="M42.5 0C19.0294 0 0 18.5816 0 41.5C0 64.4184 19.0294 83 42.5 83C65.9706 83 85 64.4184 85 41.5C85 18.5816 65.9706 0 42.5 0ZM42.5 2.6975C64.4442 2.6975 82.234 20.0687 82.234 41.5C82.234 62.9278 64.4477 80.299 42.5 80.299C20.5523 80.299 2.76604 62.9278 2.76604 41.5C2.76604 20.0722 20.5558 2.6975 42.5 2.6975ZM40.0987 4.87625C38.93 4.92467 37.7613 5.0215 36.5854 5.146L36.2065 15.3273C37.0404 15.1895 37.8791 15.0811 38.721 15.0022L38.969 8.12708L38.9229 7.65329L39.0752 8.10287L41.4269 13.2523H43.5731L45.9248 8.10633L46.0665 7.65329L46.031 8.12708L46.279 15.0022C47.1006 15.0783 47.9542 15.189 48.7935 15.3273L48.4075 5.146C47.2398 5.01751 46.0681 4.92755 44.8942 4.87625L42.5815 10.496L42.5 10.911L42.4185 10.496L40.0987 4.87625ZM63.8138 11.1842L58.349 19.5811C59.0396 20.0998 59.9498 20.8641 60.5342 21.3863L65.6802 18.7787L66.006 18.5401L65.7617 18.8652L63.0983 23.8902C63.6756 24.4954 64.5079 25.4741 64.9754 26.0689L73.5817 20.7292C73.0539 20.0625 72.5107 19.4076 71.9525 18.7649L66.5019 22.2717L66.13 22.5898L66.4063 22.1921L68.8146 17.5026L67.1146 15.8426L62.3121 18.1943L61.9048 18.464L62.2271 18.0975L65.8325 12.7751C65.195 12.2494 64.5894 11.7687 63.8138 11.1842ZM19.4792 13.0898C18.2042 13.2177 17.2196 14.0685 14.5456 16.9804C13.6184 18.0065 12.7243 19.0606 11.8646 20.1413L19.21 26.9439C21.6431 24.3155 22.6313 23.3403 24.5508 21.3656C25.9073 19.965 26.6758 18.3568 25.3158 16.811C24.5792 15.974 23.3396 15.7907 22.3054 16.2057L22.2063 16.2403L22.2417 16.1504C22.3694 15.6915 22.3559 15.2061 22.2028 14.7547C22.0498 14.3032 21.764 13.9058 21.381 13.612C21.1149 13.4071 20.8097 13.2557 20.4833 13.1667C20.1568 13.0776 19.8156 13.0492 19.4792 13.0898ZM19.5004 15.2167C19.9821 15.0887 20.4815 15.4242 20.5913 15.9083C20.7046 16.3925 20.3929 16.849 20.0458 17.2294C19.2667 18.094 16.3944 21.0267 16.3944 21.0267L14.9706 19.7021C16.4475 17.9384 18.02 16.3337 18.7319 15.6974C18.9455 15.48 19.2089 15.3152 19.5004 15.2167ZM42.5 16.887C36.261 16.8844 30.2429 19.1421 25.6107 23.2232C20.9785 27.3043 18.0617 32.9185 17.425 38.9789V38.9858C17.0248 42.8308 17.5568 46.7137 18.9781 50.3207C20.3993 53.9277 22.6698 57.1575 25.6061 59.749C28.5424 62.3404 32.062 64.2208 35.8804 65.238C39.6987 66.2553 43.7086 66.3808 47.5858 65.6046C53.2691 64.4638 58.3747 61.4422 62.04 57.0503C65.7053 52.6584 67.7055 47.1655 67.7025 41.5C67.6959 34.9754 65.0385 28.72 60.3134 24.1068C55.5883 19.4935 49.1818 16.8995 42.5 16.894V16.887ZM22.8898 17.724C23.0562 17.724 23.2298 17.7689 23.3856 17.8727C23.6973 18.0767 23.839 18.426 23.761 18.7718C23.669 19.1834 23.3183 19.5707 23.035 19.8716L19.334 23.7449L17.8465 22.3616C17.8465 22.3616 20.6338 19.4842 21.5475 18.5609C21.9088 18.1943 22.1425 17.973 22.3904 17.8519C22.544 17.7741 22.7169 17.7304 22.8898 17.724ZM42.5 20.1206C45.3762 20.1174 48.2247 20.6682 50.8826 21.7415C53.5404 22.8148 55.9553 24.3895 57.9891 26.3754C60.0228 28.3613 61.6355 30.7194 62.7346 33.3147C63.8338 35.91 64.3978 38.6915 64.3946 41.5H42.5V62.8794C39.6238 62.8826 36.7753 62.3318 34.1174 61.2585C31.4596 60.1852 29.0447 58.6105 27.0109 56.6246C24.9772 54.6387 23.3645 52.2806 22.2654 49.6853C21.1662 47.09 20.6022 44.3085 20.6054 41.5H42.5V20.1206Z" fill="white"/>
</g>
<defs>
<clipPath id="clip0_410_31">
<rect width="85" height="83" fill="white"/>
</clipPath>
</defs>
</svg>
