<svg width="113" height="42" viewBox="0 0 113 42" fill="none" xmlns="http://www.w3.org/2000/svg">
<path d="M111.037 8.45062L78.7074 8.45531C77.8846 8.45531 77.3468 8.2069 77.3468 7.04921V2.15601C77.3468 0.745229 76.6021 0 75.2506 0H38.2367C36.853 0 36.1405 0.796787 36.1405 2.14195V7.03515C36.1405 8.06629 35.6624 8.44124 34.7752 8.44124L13.5883 8.44593C11.9656 8.44593 11.0187 9.23334 10.5314 10.2692L0.211455 30.8262C0.0781466 31.0887 0 31.3934 0 31.7027C0 32.5136 0.519445 33.5681 1.96746 33.5681L34.7706 33.5634C35.782 33.5634 36.1359 34.0321 36.1359 34.9695V39.8581C36.1359 41.3345 36.9725 42 38.2367 42H75.246C76.5055 42 77.3468 41.3766 77.3468 39.8721L77.3422 34.9836C77.3422 33.9853 77.7559 33.5775 78.7028 33.5775L99.2784 33.5728C100.694 33.5728 101.715 33.1932 102.427 31.848L112.628 11.53C112.853 11.0894 113 10.841 113 10.3207C113 8.93338 111.832 8.45062 111.037 8.45062ZM102.887 16.6388L97.9683 26.4486C97.6603 27.0204 97.1133 27.0392 96.7271 27.0392H72.327C71.3157 27.0392 70.9479 27.5032 70.9479 28.4406V34.0837C70.9479 35.0164 70.5434 35.471 69.5597 35.471H43.923C43.0634 35.471 42.5393 35.1617 42.5393 34.0696V28.4312C42.5393 27.4001 42.0751 27.0345 41.1557 27.0345H11.2347C10.4992 27.0345 9.99357 26.5658 9.99357 25.9096C9.99357 25.7174 10.0395 25.544 10.1223 25.38L15.0409 15.5748C15.2294 15.2327 15.5374 14.9843 16.2775 14.9843L41.1557 14.989C42.0153 14.989 42.5485 14.6374 42.5485 13.5735V7.93037C42.5485 6.93204 42.976 6.53365 43.923 6.53365L69.5551 6.52896C70.4745 6.52896 70.9341 6.9461 70.9341 7.94443V13.5829C70.9341 14.5531 71.3754 14.9796 72.327 14.9796H101.77C102.708 14.9796 103.016 15.6076 103.016 16.1091C103.016 16.2919 102.97 16.4747 102.887 16.6388Z" fill="white"/>
</svg>
