<svg width="85" height="83" viewBox="0 0 85 83" fill="none" xmlns="http://www.w3.org/2000/svg">
<g clip-path="url(#clip0_439_9)">
<path d="M44.5258 39.2451L44.6215 18.6438H49.3673C51.5206 23.233 52.9019 29.299 53.9856 39.2451H44.5258ZM36.9431 71.8226H44.8127L44.9013 46.7428H54.3327C55.0729 51.1695 55.2535 64.8333 55.2996 71.8226H62.9319C63.6544 40.8602 61.416 23.3575 55.2323 11.1738H36.2242L36.9431 71.8226ZM68.3683 71.8226H76.5921L78.3381 18.8167H85L84.9504 11.1738H61.8446V18.8271H68.5596L68.3683 71.8226ZM31.705 11.1807H21.9938L23.035 71.8295H31.535L31.705 11.1807ZM9.74667 46.6771H16.6529V38.837H9.74667L9.77146 19.1038H18.785L18.7354 11.1773H0L1.69292 71.8261H9.92729L9.74667 46.6771Z" fill="white"/>
</g>
<defs>
<clipPath id="clip0_439_9">
<rect width="85" height="83" fill="white"/>
</clipPath>
</defs>
</svg>
