<svg width="128" height="45" viewBox="0 0 128 45" fill="none" xmlns="http://www.w3.org/2000/svg">
<path d="M60.6273 0.00609441C60.6172 0.0126858 60.0878 0.0291644 59.4472 0.0423473C58.8066 0.0555301 58.139 0.0720087 57.9636 0.0786001C57.7883 0.0884873 57.2421 0.111557 56.7498 0.128036C54.049 0.230203 51.0481 0.421354 48.2191 0.675124C30.9353 2.21093 16.2276 6.24488 7.67673 11.7883C3.08435 14.7676 0.481323 18.0798 0.0531057 21.4974C-0.0177019 22.0478 -0.0177019 22.9673 0.0531057 23.5144C0.413887 26.3949 2.31895 29.1995 5.69748 31.8262C11.8274 36.5918 22.7992 40.5368 36.2324 42.8075C42.2612 43.8226 48.9002 44.5279 55.2325 44.8179C55.6303 44.8344 56.0956 44.8575 56.2609 44.8673C56.4295 44.8739 56.8745 44.8904 57.2555 44.9003C57.6366 44.9135 57.994 44.9267 58.0479 44.9333C58.783 45.0222 68.2139 45.0222 70.0346 44.9333C70.21 44.9234 70.7562 44.9003 71.2485 44.8838C84.3715 44.3895 97.2113 42.3428 107.091 39.1658C119.775 35.0857 127.193 29.5225 127.945 23.5144C128.053 22.6509 127.999 21.5502 127.807 20.6933C126.805 16.2507 122.034 11.986 114.188 8.51563C103.78 3.91481 88.7717 0.919007 72.4117 0.177472C71.8183 0.151106 71.1676 0.121444 70.9619 0.111557C70.7596 0.104966 70.2133 0.0884873 69.748 0.0753044C69.2861 0.0654173 68.8612 0.0489387 68.8039 0.0390516C68.6792 0.0192773 60.6509 -0.0136799 60.6273 0.00609441ZM68.6185 1.54849C87.5005 2.01318 104.38 5.25946 115.082 10.4832C117.813 11.8146 119.823 13.0769 121.657 14.6094C122.449 15.2718 123.474 16.3331 124.078 17.124C125.625 19.1377 126.259 21.3821 125.885 23.5111C125.629 24.9876 124.921 26.4179 123.727 27.8779C123.299 28.402 122.092 29.595 121.488 30.0927C116.363 34.3046 107.512 37.7816 95.9637 40.1182C83.9702 42.5439 69.7076 43.5161 55.7045 42.857C41.9948 42.211 29.3203 40.0161 19.7106 36.6215C14.6732 34.8451 10.5259 32.7358 7.69021 30.5112C4.83431 28.2734 3.21247 25.9697 2.76403 23.5111C2.69659 23.142 2.6831 22.9739 2.6831 22.2917C2.6831 21.4118 2.71682 21.1283 2.91576 20.3802C4.11611 15.8519 9.74701 11.5806 18.9621 8.20583C21.3864 7.31599 23.8681 6.55468 26.9431 5.75052C29.8193 5.0024 33.562 4.21802 36.9742 3.65445C44.5506 2.39878 52.1743 1.71657 60.7116 1.53531C61.6254 1.51553 67.6912 1.52542 68.6185 1.54849Z" fill="white"/>
<path d="M62.7482 3.30523C62.7414 3.31182 61.9626 3.325 61.0151 3.33819C60.071 3.35137 59.2516 3.36785 59.1943 3.37444C59.1404 3.38103 58.729 3.39421 58.2839 3.40739C56.598 3.44694 54.1366 3.56889 51.8775 3.72378C38.6972 4.61692 26.7948 6.9371 18.2439 10.279C12.2084 12.6354 8.10157 15.3675 6.11558 18.3403C5.03998 19.9552 4.632 21.6722 4.92534 23.3432C5.66714 27.5683 10.7215 31.533 19.4578 34.7397C20.5772 35.1484 22.8397 35.8932 24.0569 36.2492C32.6044 38.7506 43.1648 40.3985 54.4738 40.9917C58.0547 41.1829 60.4351 41.2422 64.3363 41.2422C68.2105 41.2422 70.6416 41.1796 74.1819 40.995C92.5649 40.0195 108.51 36.3151 117.166 31.0057C118.663 30.0862 119.836 29.1964 120.864 28.1912C122.25 26.8399 123.093 25.5678 123.531 24.1605C123.71 23.587 123.784 23.1256 123.805 22.4863C123.832 21.6525 123.737 20.99 123.474 20.2221C122.469 17.2725 119.367 14.4843 114.323 11.9927C104.855 7.31941 89.4865 4.20496 72.2769 3.47331C71.2046 3.43046 69.9099 3.38762 68.1127 3.34148C67.236 3.31841 62.7684 3.28875 62.7482 3.30523ZM50.2085 6.71959C52.9464 6.85471 54.8245 7.08871 60.2261 7.95548C63.6586 8.50916 65.041 8.7069 66.7977 8.90794C70.9383 9.38252 74.8597 9.40889 78.363 8.99033C79.5599 8.84862 80.8075 8.64428 81.9033 8.41029C82.2102 8.34767 82.544 8.29494 82.6485 8.29494C83.0127 8.29494 83.3026 8.49927 83.4038 8.83543C83.4712 9.05954 83.4678 9.22762 83.3903 9.52753C83.1745 10.3449 82.4428 11.0633 81.0536 11.8214C79.334 12.7639 77.611 13.2056 75.2204 13.3176C73.5716 13.3934 71.7037 13.2484 69.684 12.8826C68.1431 12.6024 66.8213 12.286 63.4765 11.3863C62.0098 10.9941 61.5175 10.8656 60.7453 10.6777C60.1317 10.5261 59.0594 10.279 59.0224 10.279C59.0156 10.279 59.0089 10.3679 59.0089 10.4734C59.0089 10.5822 58.9954 10.7074 58.9785 10.7535C58.9583 10.803 58.6649 11.037 58.2131 11.3698C56.9015 12.3256 55.7113 13.2846 54.9492 14.0031C53.5837 15.2819 52.589 16.4617 51.8337 17.6877C51.6179 18.0404 51.6246 18.0634 51.9281 18.0371C52.0293 18.0305 52.6294 18.0008 53.26 17.9744C54.7806 17.9085 56.0687 17.8261 56.1664 17.7899C56.2103 17.7734 56.244 17.7437 56.2474 17.7207C56.2474 17.6976 56.2474 17.4636 56.2474 17.2C56.244 16.6562 56.3047 16.2969 56.4767 15.8652C56.9049 14.7842 57.9063 14.0097 58.9583 13.9471C59.8586 13.8944 60.6273 14.4217 60.8465 15.2456C60.8735 15.3478 60.8971 15.5719 60.8971 15.7367C60.8971 17.0121 59.9833 18.192 58.638 18.6534C58.3783 18.7423 58.3345 18.7687 58.3345 18.8511C58.3345 18.9566 58.52 19.1247 59.0089 19.4575C59.2719 19.6355 59.5012 19.8102 59.518 19.8398C59.5585 19.9189 59.5551 20.1233 59.5113 20.2089C59.4539 20.3177 59.2752 20.4957 59.1673 20.5517C58.9886 20.6407 58.7425 20.6143 58.4458 20.4693C57.9704 20.2353 57.5624 19.942 57.1544 19.5465C56.942 19.3389 56.7262 19.1576 56.6756 19.1444C56.625 19.1279 56.4969 19.1247 56.389 19.1312C56.2811 19.1378 55.8664 19.1675 55.4685 19.1939C53.9546 19.2993 50.9402 19.5992 50.6266 19.675C50.549 19.6948 50.4479 19.7508 50.4041 19.797C50.3569 19.8464 50.104 20.2353 49.8376 20.6605C46.2399 26.4313 44.0718 29.3743 41.8498 31.4968C39.0243 34.2025 36.4887 35.3363 33.2652 35.333C32.2638 35.3297 31.4613 35.2077 30.6251 34.9243C28.1806 34.1037 26.5824 32.2185 26.2519 29.7731C26.1879 29.3084 26.1777 28.3263 26.2317 27.8945C26.5554 25.3305 28.1671 23.1487 30.6015 21.9787C31.168 21.7052 31.7648 21.5042 32.2369 21.4284C32.8505 21.3295 33.4102 21.4547 33.653 21.7414C33.8115 21.9293 33.889 22.1205 33.889 22.3248C33.889 22.6642 33.7744 22.8159 33.3361 23.0433C30.4026 24.5692 29.1517 26.975 30.1969 29.0876C30.8005 30.3037 32.0312 30.976 33.653 30.976C35.5581 30.9727 37.571 30.0829 39.5199 28.3856C41.2935 26.8366 43.1851 24.7801 44.9721 22.4566C45.9499 21.1878 46.5332 20.3902 46.5332 20.3276C46.5332 20.2716 46.5063 20.265 46.3175 20.265C46.0005 20.265 45.3565 20.3507 44.9485 20.4495C44.2135 20.6275 43.4784 20.9538 42.7467 21.4317C42.2646 21.7414 42.0724 21.8074 41.8161 21.7513C41.2733 21.6327 41.1215 21.0625 41.5025 20.5649C41.6037 20.4331 42.1701 20.0639 42.622 19.8398C43.8392 19.2268 44.8507 18.9467 47.2649 18.5512C48 18.4326 48.236 18.3831 48.2899 18.3337C48.3304 18.3007 48.853 17.6317 49.4498 16.8539C50.05 16.0728 50.7008 15.2423 50.8997 15.0083C51.3549 14.4711 52.6058 13.2484 53.3611 12.6024C54.8042 11.3698 55.4584 10.915 56.7498 10.246C56.9993 10.1175 57.2286 9.98893 57.2555 9.96257C57.4005 9.82415 57.1578 9.76483 54.2041 9.2441C50.5153 8.59155 48.0573 8.42677 45.7746 8.68054C43.6268 8.92112 41.6273 9.56708 40.3629 10.4372C39.3817 11.1095 38.6129 11.9894 38.2724 12.8265C38.07 13.3275 38.0262 13.545 38.0228 14.069C38.0228 14.5008 38.033 14.5733 38.1139 14.8172C38.2622 15.2555 38.5286 15.5884 38.8995 15.7993C39.3648 16.0662 40.1201 16.1519 40.8012 16.0135C42.2578 15.7202 44.0482 14.4612 45.0497 13.0243C45.3666 12.5695 45.4745 12.4871 45.751 12.4871C45.9567 12.4871 46.1118 12.5827 46.2096 12.7672C46.2669 12.876 46.2804 12.9551 46.277 13.2121C46.277 13.4989 46.2669 13.5516 46.1489 13.8218C45.8353 14.5502 45.2587 15.5521 44.8069 16.1552C43.4818 17.9283 41.8599 19.0884 40.0898 19.5267C39.3412 19.7113 38.3735 19.764 37.7059 19.6553C36.1009 19.3916 34.8601 18.3502 34.3476 16.8308C34.0441 15.9344 34.0306 14.8172 34.3139 13.7592C34.8871 11.6269 36.6033 9.79778 39.267 8.4795C41.371 7.44135 43.6537 6.88108 46.4321 6.72288C47.1368 6.68334 49.4397 6.68333 50.2085 6.71959ZM102.653 15.2555C102.802 15.3082 102.768 15.4269 102.458 15.8949C102.303 16.1321 101.247 17.7207 100.111 19.4246C95.1342 26.8795 92.9763 30.2015 92.2278 31.5396C91.8569 32.1955 91.8063 32.6799 92.076 32.9831C92.2547 33.1875 92.42 33.26 92.7605 33.2764C93.3809 33.3061 93.9406 33.0622 94.9319 32.3339C95.8322 31.6747 96.4459 31.1276 98.1587 29.4699C99.7233 27.9539 99.5783 28.0396 99.9829 28.379C100.452 28.7712 100.684 29.0118 100.684 29.1041C100.684 29.2458 99.5412 30.5344 98.4083 31.6648C96.1728 33.896 94.5071 35.0693 92.7942 35.6263C91.3309 36.1009 90.09 35.9625 89.3483 35.2473C88.9234 34.8419 88.6638 34.3212 88.5795 33.7049C88.5087 33.2171 88.4615 33.2072 88.013 33.606C86.8127 34.6672 85.4876 35.3824 84.2973 35.6065C82.4867 35.946 80.8109 35.1715 80.0219 33.6291C79.5734 32.7524 79.4116 31.5066 79.5937 30.3499C79.6375 30.0532 79.6139 29.9148 79.5094 29.895C79.4824 29.8917 79.3071 29.984 79.1216 30.1027C78.5147 30.4916 77.5638 30.9002 76.849 31.0782C76.06 31.2759 75.1598 31.2298 74.536 30.9596C73.9796 30.719 73.4368 30.2081 73.1535 29.6578C72.958 29.2787 72.7658 28.5405 72.7658 28.1747C72.7658 28.0396 72.695 27.9209 72.6343 27.9572C72.577 27.9934 71.4238 29.7138 69.1849 33.1183C68.4263 34.2685 67.762 35.2506 67.7047 35.3L67.6069 35.3923H65.8907C64.0092 35.3923 64.0666 35.3989 64.0666 35.1978C64.0666 35.0825 64.4712 34.4332 65.8233 32.3767C67.5935 29.6874 68.5207 28.2208 69.4109 26.7048C70.1594 25.4359 70.2504 25.225 70.2504 24.7603C70.2538 24.4901 70.2471 24.4505 70.1594 24.3253C69.7952 23.7815 68.8714 24.0583 67.5226 25.1097C66.9697 25.5414 65.6749 26.8037 65.0646 27.5057C64.3228 28.3559 63.0415 29.9511 62.5695 30.6102C61.0353 32.7491 59.5821 34.0905 57.9299 34.9012C56.3553 35.6724 54.8582 35.8372 53.3173 35.4055C52.9127 35.2934 52.2046 34.9441 51.8573 34.687C51.1155 34.1366 50.5356 33.3358 50.2422 32.4591C50.077 31.9648 49.9994 31.9252 49.7297 32.2185C49.2037 32.792 48.2562 33.5895 47.6965 33.9389C47.5785 34.0114 47.4908 34.0411 47.3897 34.0411C47.2582 34.0411 47.2312 34.0246 47.0559 33.8334C46.9513 33.7214 46.7592 33.4775 46.631 33.2896C46.3916 32.9403 46.3512 32.8085 46.4321 32.6569C46.4489 32.6239 46.7356 32.3635 47.0626 32.0768C48.6676 30.6761 48.9879 30.2675 49.6049 28.8009C50.0467 27.7528 50.6367 26.6718 51.1964 25.894C51.6213 25.3041 51.9517 24.9185 52.5013 24.3846C53.3341 23.5706 53.968 23.1256 55.0302 22.6082C55.7618 22.2523 56.4126 22.0084 57.0701 21.8469C58.3649 21.5239 59.0493 21.5437 59.2988 21.9029C59.3865 22.0315 59.6832 22.806 59.7068 22.9675C59.7169 23.0367 59.7035 23.1059 59.6765 23.1421C59.6529 23.1718 59.4202 23.2838 59.1606 23.3893C58.5098 23.6563 58.0412 23.8771 57.6096 24.121C55.9439 25.0569 54.7806 26.2104 54.0692 27.6309C53.4892 28.7811 53.3207 29.9148 53.5837 30.8475C53.7624 31.477 54.2176 32.0373 54.7604 32.2877C54.9189 32.3602 55.1313 32.4393 55.2325 32.4624C55.4685 32.5184 56.1294 32.5184 56.3957 32.4624C58.2367 32.0669 59.9193 30.3729 60.6374 28.1912C60.9139 27.354 61.0353 26.573 61.0387 25.6535C61.0387 24.8262 60.9713 24.2989 60.7588 23.4948C60.6442 23.0531 60.6408 22.9971 60.7251 22.8159C60.8027 22.6478 61.0016 22.483 61.386 22.2589C62.1817 21.7975 62.438 21.7316 62.7785 21.8996C62.9842 21.9985 63.0921 22.1369 63.3248 22.5753C63.699 23.2904 63.9081 24.0913 63.9823 25.1097C64.0092 25.4656 64.0396 25.548 64.1441 25.5315C64.1879 25.5249 64.515 25.2019 64.9736 24.7142C66.7674 22.806 67.5935 22.1139 68.7297 21.5635C69.5053 21.1911 70.0987 21.0395 70.7933 21.0428C71.5317 21.0428 72.0206 21.2141 72.4252 21.6129C72.8703 22.048 73.0928 22.6478 73.1266 23.5047C73.1468 24.0254 73.1805 24.1374 73.2952 24.0682C73.3289 24.0485 73.484 23.8705 73.6424 23.6727C74.4921 22.6049 75.652 21.8008 76.731 21.5338C77.8134 21.2636 78.7069 21.3954 79.4386 21.9326C79.8567 22.2391 80.2208 22.7829 80.3355 23.2773C80.5614 24.2264 80.1264 25.3997 79.3172 26.0292C78.889 26.362 78.3933 26.5367 77.874 26.5367C77.0176 26.5367 76.323 26.0259 76.1173 25.2382C76.0735 25.0734 76.0668 24.9449 76.0803 24.6549C76.1005 24.2857 76.1005 24.2824 76.0196 24.2462C75.9049 24.1968 75.8206 24.2561 75.5576 24.5791C75.1193 25.113 74.8394 25.6699 74.718 26.2467C74.4213 27.6441 75.1901 28.735 76.468 28.735C77.6583 28.735 79.152 27.8781 81.4313 25.8842C82.6957 24.7801 82.9385 24.5725 83.3701 24.2198C84.3816 23.3992 85.1605 22.8818 86.0169 22.4599C87.7534 21.6096 89.4123 21.4844 90.8285 22.0974C91.6916 22.4731 92.393 23.2674 92.5312 24.032C92.5649 24.2099 92.6256 24.3187 92.6964 24.3187C92.7133 24.3187 92.7706 24.2791 92.8212 24.2264C92.9628 24.0979 97.9665 16.7221 98.5802 15.7367C98.8264 15.3478 98.8871 15.2786 99.0152 15.2456C99.1467 15.2159 102.566 15.2225 102.653 15.2555Z" fill="white"/>
<path d="M58.8065 15.1532C58.4019 15.2751 57.9669 15.7563 57.7916 16.2803C57.7242 16.4813 57.7107 16.5901 57.7107 16.9131C57.7107 17.2822 57.7141 17.3086 57.7882 17.3646C57.8591 17.4239 57.8759 17.4239 58.0411 17.3745C58.6379 17.2031 59.2449 16.6494 59.4573 16.0859C59.5517 15.8387 59.5551 15.4728 59.4708 15.341C59.3561 15.1729 59.0426 15.084 58.8065 15.1532Z" fill="white"/>
<path d="M88.6202 24.1177C87.6458 24.3517 86.5061 25.1822 85.444 26.428C84.4223 27.6277 83.7783 28.8141 83.5086 29.9907C83.1714 31.4639 83.4546 32.39 84.3313 32.6767C84.601 32.7657 85.1102 32.7591 85.4609 32.6635C86.2465 32.446 87.2479 31.7901 88.1785 30.8805C88.6708 30.3961 88.8461 30.1818 89.3957 29.3942C89.9116 28.6526 90.4342 27.7727 90.4342 27.6474C90.4342 27.6309 90.3702 27.5749 90.2926 27.5255C90.0128 27.3574 90.006 27.2948 90.2117 26.84C90.7141 25.7227 90.7175 24.9548 90.2218 24.4704C89.8442 24.1045 89.2406 23.9694 88.6202 24.1177Z" fill="white"/>
</svg>
