<svg width="85" height="83" viewBox="0 0 85 83" fill="none" xmlns="http://www.w3.org/2000/svg">
<g clip-path="url(#clip0_410_4)">
<mask id="mask0_410_4" style="mask-type:luminance" maskUnits="userSpaceOnUse" x="0" y="0" width="85" height="83">
<path d="M85 0H0V83H85V0Z" fill="white"/>
</mask>
<g mask="url(#mask0_410_4)">
<path d="M84.6567 23.7588C83.4917 12.6265 75.9085 10.2852 69.236 9.21657C65.8857 8.66323 59.9216 8.18249 56.0753 8.04416C52.7249 7.83666 44.8553 7.73291 42.493 7.73291C40.1626 7.73291 32.2576 7.83666 28.9072 8.04416C25.0963 8.18249 19.0968 8.66666 15.7463 9.21657C9.07742 10.3197 1.48761 12.6576 0.325944 23.7554C0.0426111 26.7883 -0.0282222 30.7516 0.00719445 34.9881C0.113444 42.0154 0.715527 46.7706 1.06969 50.0802C1.31407 52.3523 2.26678 59.1411 3.50282 62.6547C5.19573 67.4791 6.747 68.8901 8.54617 70.3393C11.8647 72.9571 17.2976 73.7838 18.4274 73.9913C24.5651 75.0597 36.9858 75.264 42.4576 75.264C47.9259 75.264 60.343 75.0907 66.4843 73.9913C67.6493 73.7838 73.0825 72.988 76.3658 70.3393C78.165 68.8901 79.7159 67.4791 81.4092 62.6547C82.6484 59.1411 83.6333 52.3523 83.8809 50.0802C84.2351 46.7706 84.8692 42.0154 84.94 34.9881C85.0817 30.7516 84.9751 26.7918 84.6567 23.7588ZM80.4917 42.4304C79.8225 51.3183 79.011 56.6268 77.8459 60.4829C76.8225 63.8617 75.59 66.099 73.72 67.7215C70.6493 70.4427 66.4134 71.0277 63.9449 71.3735C58.5828 72.1653 49.5834 72.407 42.493 72.407C35.3991 72.407 26.3997 72.1304 21.0376 71.3695C18.5691 71.0277 14.3333 70.4427 11.2626 67.7215C9.42801 66.099 8.1601 63.8271 7.172 60.4829C6.00678 56.6614 5.19573 51.3183 4.52636 42.4304C4.13678 37.0907 4.20761 28.4068 4.80969 23.7554C5.72344 16.7972 9.25451 13.3147 16.8053 12.0074C20.3328 11.3849 25.0928 10.9388 29.5766 10.7313C33.1749 10.4892 39.1391 10.3855 42.4576 10.4201C45.7726 10.3855 51.7368 10.5238 55.3351 10.7313C59.8507 10.9388 64.5788 11.3884 68.1067 12.0074C75.6926 13.3147 79.2235 16.8318 80.1058 23.7554C80.8101 28.4068 80.9167 37.0907 80.4951 42.4304M62.0713 13.4184C60.1305 21.9294 59.3549 25.8235 57.7647 31.9897C56.2488 37.9172 55.0482 43.3952 53.0366 46.0478C50.9576 48.7349 48.2022 49.3228 46.3322 49.5269C45.3441 49.6307 44.6393 49.6652 42.5568 49.6998C40.4424 49.6998 39.7341 49.6307 38.7459 49.5269C36.8759 49.3194 34.0887 48.7349 32.0451 46.0478C29.998 43.3952 28.8328 37.9172 27.317 31.9897C25.6559 25.8581 24.9158 21.9294 22.9395 13.4184C22.9395 13.4184 20.9987 13.4876 20.1168 13.5567C18.9516 13.6259 18.0343 13.7297 17.0462 13.868C17.0462 13.868 18.1795 31.3707 18.6718 38.7784C19.203 46.5666 20.1522 59.7255 21.0341 69.6509C21.0341 69.6509 22.6562 69.8933 25.3762 70.0659C28.2343 70.2352 29.5022 70.2352 29.5022 70.2352C30.6674 65.8606 32.1478 59.7947 33.7734 57.2113C35.1122 55.1087 37.1947 54.87 38.3599 54.7317C40.1945 54.4896 41.7458 54.455 42.4895 54.455C43.1943 54.4204 44.7455 54.455 46.6155 54.7317C47.7808 54.9046 49.8633 55.1121 51.202 57.2113C52.863 59.7947 54.308 65.8572 55.4732 70.2352C55.4732 70.2352 56.7412 70.201 59.5993 70.0626C61.0532 70.0007 62.5028 69.8624 63.9413 69.6476C64.8232 59.7255 65.7759 46.5977 66.3037 38.7784C66.7995 31.3707 67.9293 13.868 67.9293 13.868C66.9376 13.7297 66.0238 13.6259 64.8587 13.5567C64.0441 13.4876 62.0713 13.4184 62.0713 13.4184Z" fill="#FEFEFE"/>
</g>
</g>
<defs>
<clipPath id="clip0_410_4">
<rect width="85" height="83" fill="white"/>
</clipPath>
</defs>
</svg>
