<svg width="99" height="49" viewBox="0 0 99 49" fill="none" xmlns="http://www.w3.org/2000/svg">
<path d="M49.4688 49C76.8016 49 98.9376 38.0268 98.9376 24.5057C98.9376 10.9845 76.8016 0 49.4688 0C22.1478 0 0 10.9732 0 24.4943C0 38.0155 22.1478 49 49.4688 49ZM58.7596 36.9623C57.9502 38.7969 56.519 42.749 53.2696 44.3118C52.2725 44.7647 51.0407 45.0025 49.9732 45.0365C49.7269 45.0705 49.5626 45.0365 49.504 45.0365C40.3657 45.0365 31.8726 43.8361 24.752 41.7298C24.6933 41.6959 24.5291 41.6392 24.5291 41.6392C23.8135 41.4241 23.4733 41.1296 23.4733 40.7673C23.4733 40.4615 23.6258 40.2237 23.8839 39.9859C23.9778 39.8953 24.1303 39.7707 24.318 39.5896C25.9368 38.2646 30.9341 34.7994 40.2132 31.3229C43.4978 30.1225 47.5801 28.6164 51.8619 27.7331C54.3957 27.2688 63.6983 25.9212 58.7596 36.9623ZM83.8049 12.2868C83.9574 11.981 84.2154 11.7206 84.6495 11.7206C84.8958 11.6866 85.1774 11.7546 85.6466 12.049C91.4533 15.5029 94.9257 19.8174 94.9257 24.4943C94.9257 32.9535 83.6876 40.2011 67.6398 43.3832C66.6075 43.5983 65.9271 43.5983 65.6808 43.3266C65.5283 43.1454 65.4579 42.9076 65.6808 42.5792C65.7746 42.398 65.9037 42.2508 66.1148 42.0356C74.866 32.0703 81.5408 17.3601 83.406 13.0908C83.5233 12.7398 83.6641 12.468 83.8049 12.2868ZM40.3305 11.9584C41.1399 10.1239 42.5711 6.17171 45.8205 4.60897C46.8176 4.13335 48.0494 3.91819 49.1169 3.88422C49.3632 3.88422 49.5509 3.88422 49.6096 3.88422C58.7127 3.88422 67.2175 5.11856 74.3264 7.19089C74.385 7.19089 74.5493 7.24752 74.6079 7.28149C75.2648 7.49665 75.605 7.79108 75.605 8.15345C75.605 8.48186 75.4173 8.69702 75.1945 8.93483C75.1006 9.02542 74.9481 9.17264 74.7604 9.33118C73.1064 10.6561 68.1794 14.1213 58.8652 17.5526C55.5805 18.7869 51.4982 20.2591 47.2165 21.1763C44.6826 21.6633 35.3918 23.0222 40.3305 11.9584ZM31.3682 5.6055C32.4005 5.39034 33.2099 5.39034 33.4211 5.66212C33.5736 5.80933 33.6439 6.08112 33.4211 6.40952C33.3272 6.59071 33.1982 6.73792 33.0105 6.97573C24.2476 16.9411 17.5845 31.6513 15.7193 35.8865C15.5668 36.1923 15.4377 36.4867 15.3087 36.6679C15.121 36.9737 14.8747 37.2115 14.4641 37.2341C14.2412 37.2341 13.9362 37.1775 13.4318 36.9057C7.62502 33.4518 4.04713 29.1373 4.04713 24.4604C4.09405 16.0351 15.3322 8.77629 31.3682 5.6055Z" fill="white"/>
<path d="M49.4688 0C22.1478 0 0 10.9392 0 24.4604C0 37.9815 22.1478 48.9207 49.4688 48.9207C76.8016 48.9207 98.9376 37.9475 98.9376 24.4604C98.9376 10.9392 76.8016 0 49.4688 0ZM83.8518 40.4389C74.7135 44.9572 62.5135 47.4599 49.4805 47.4599C36.4476 47.4599 24.271 44.9459 15.1327 40.4389C6.33463 36.0677 1.51327 30.4169 1.51327 24.483C1.51327 18.5491 6.3581 12.887 15.1445 8.51583C24.2828 3.96348 36.4828 1.4948 49.5157 1.4948C62.5486 1.4948 74.737 3.98613 83.887 8.51583C92.6968 12.887 97.5182 18.5491 97.5182 24.4717C97.5182 30.3943 92.6616 36.0677 83.8518 40.4389Z" fill="white"/>
</svg>
