<svg width="85" height="83" viewBox="0 0 85 83" fill="none" xmlns="http://www.w3.org/2000/svg">
<g clip-path="url(#clip0_437_4)">
<path fill-rule="evenodd" clip-rule="evenodd" d="M42.3174 43.9983H17.5916L5.33569 65.0109H30.1329L42.3174 43.9983ZM54.8802 22.4422L42.5176 1.2207L30.1192 22.4422L42.5176 43.6986L54.8802 22.4422ZM54.8674 65.0109H79.6642L67.4082 43.9983H42.6825L54.8674 65.0109Z" fill="white"/>
<path fill-rule="evenodd" clip-rule="evenodd" d="M53.7678 81.4757H55.6194V71.8166H53.7678V81.4757ZM74.5345 81.4757H76.3866V71.8166H74.5345V81.4757ZM18.9654 81.4757H20.817V71.8166H18.9654V81.4757ZM27.8946 71.8166H22.1677V73.4546H24.0767V81.4757H25.9857V73.4546H27.8946V71.8166ZM70.8268 75.4883H66.6574V71.8166H64.8057V81.4757H66.6574V77.1263H70.8268V81.4757H72.6775V71.8166H70.8268V75.4883ZM12.9884 76.1376L11.2528 71.8166H9.1123V81.4757H10.9635V75.4883L12.9884 80.2894L14.9552 75.4319V81.4757H16.8059V71.8166H14.7237L12.9884 76.1376ZM43.5822 71.8174H41.7478V78.7087C41.7478 79.4588 40.8874 80.0664 40.1193 80.0664C39.3515 80.0664 38.4912 79.4588 38.4912 78.7087V71.8174H36.6228L36.6501 78.6243C36.6501 80.3669 38.3342 81.7797 40.1188 81.7797C41.9039 81.7797 43.5879 80.3669 43.5879 78.6243L43.5822 71.8174ZM50.722 76.2508C50.9822 76.0812 51.9655 75.5163 51.9655 74.3024C51.9655 72.6071 50.5773 71.845 49.6513 71.817H45.3629V81.4761H49.1592C50.6638 81.4761 52.283 80.77 52.283 78.9059C52.2835 77.2959 51.5034 76.6741 50.722 76.2508ZM49.2469 79.8377H47.2154V73.4546H49.1601C49.6813 73.4546 50.0861 73.8783 50.0861 74.3868C50.0861 74.8953 49.8837 75.4883 49.1896 75.4883H48.3809V77.1267H49.2474C49.7686 77.1267 50.4909 77.6068 50.4627 78.595C50.4371 79.442 49.7386 79.8377 49.2469 79.8377ZM28.6359 78.341C28.6213 78.4396 28.6359 78.5528 28.6425 78.7363C28.6425 80.4018 30.025 81.6673 31.7306 81.6673C33.4363 81.6673 34.8188 80.5435 34.8188 78.8775C34.8188 78.0012 34.4673 77.3243 33.8566 76.7732C33.3578 76.3236 31.937 75.6493 31.3836 75.3186C30.8628 75.0077 30.6172 74.7683 30.6048 74.3162C30.6048 73.6544 31.0529 73.1884 31.7306 73.1884C32.0561 73.1884 32.3683 73.3147 32.5984 73.5394C32.8286 73.7642 32.9579 74.069 32.9579 74.3868C32.9702 74.5565 32.9746 74.7257 32.9746 74.8385H34.6146V74.3868C34.6146 72.8319 33.6109 71.5991 31.7306 71.5991C30.1383 71.5991 28.8467 72.664 28.8467 74.3868C28.8524 75.1494 29.214 75.8836 30.1109 76.4627C31.0745 77.0845 32.2801 77.5495 32.6849 77.9452C32.9292 78.1838 33.0805 78.5132 33.0805 78.8771C33.0805 79.6048 32.4759 80.1245 31.7302 80.1245C30.9845 80.1245 30.3852 79.4842 30.2935 78.8771C30.2741 78.722 30.226 78.4538 30.2406 78.3405H28.6359V78.341ZM59.9026 75.3186C59.3813 75.0077 59.1362 74.7683 59.1229 74.3162C59.1229 73.6544 59.5719 73.1884 60.2496 73.1884C60.575 73.1887 60.8869 73.315 61.1168 73.5397C61.3468 73.7645 61.476 74.0691 61.476 74.3868C61.4888 74.5565 61.4932 74.7257 61.4932 74.8385H63.1331V74.3868C63.1331 72.8319 62.129 71.5991 60.2496 71.5991C58.6564 71.5991 57.3652 72.664 57.3652 74.3868C57.3714 75.1494 57.733 75.8836 58.6295 76.4627C59.5935 77.0845 60.7991 77.5495 61.2039 77.9452C61.4477 78.1838 61.599 78.5132 61.599 78.8771C61.599 79.6048 60.9944 80.1245 60.2492 80.1245C59.5035 80.1245 58.9038 79.4842 58.8116 78.8771C58.7927 78.722 58.7446 78.4538 58.7591 78.3405H57.1536C57.139 78.4391 57.1536 78.5524 57.1606 78.7358C57.1606 80.4014 58.5431 81.6669 60.2492 81.6669C61.9544 81.6669 63.3369 80.543 63.3369 78.8771C63.3369 78.0008 62.9854 77.3239 62.3747 76.7727C61.8764 76.3236 60.4556 75.6493 59.9026 75.3186Z" fill="white"/>
</g>
<defs>
<clipPath id="clip0_437_4">
<rect width="85" height="83" fill="white"/>
</clipPath>
</defs>
</svg>
