<svg width="60" height="75" viewBox="0 0 60 75" fill="none" xmlns="http://www.w3.org/2000/svg">
<path fill-rule="evenodd" clip-rule="evenodd" d="M11.9701 17.719C6.76212 27.464 2.36812 36.153 2.20612 37.027C2.04412 37.901 6.31412 46.823 11.6961 56.853C21.2531 74.668 21.5501 75.084 24.4711 74.795C27.2521 74.521 28.1571 73.205 37.3521 56.06L47.2421 37.62L41.9561 27.56C39.0481 22.027 36.0901 16.643 35.3831 15.597C34.1591 13.786 34.0351 13.828 32.8311 16.471C31.6661 19.028 31.9511 19.976 36.4301 28.418L41.2951 37.588L33.0111 53.044C28.4541 61.545 24.6121 68.639 24.4721 68.808C24.1041 69.253 7.74712 38.693 7.71512 37.5C7.70012 36.95 12.0331 28.484 17.3441 18.686C22.6551 8.888 27.0001 0.675 27.0001 0.436C27.0001 0.196 25.7491 0 24.2201 0C21.6411 0 20.7561 1.281 11.9701 17.719ZM31.6651 2.25C30.9061 3.488 26.3381 11.893 21.5151 20.929L12.7461 37.358L18.0391 47.429C20.9501 52.968 23.9101 58.357 24.6171 59.403C25.8411 61.214 25.9651 61.172 27.1691 58.529C28.3341 55.972 28.0491 55.024 23.5701 46.582L18.7051 37.412L26.9891 21.956C31.5461 13.455 35.3881 6.361 35.5281 6.192C35.9041 5.737 52.2571 36.326 52.2651 37.5C52.2701 38.05 47.9371 46.53 42.6371 56.344C37.3361 66.159 33.0001 74.371 33.0001 74.594C33.0001 74.817 34.2511 75 35.7801 75C38.3591 75 39.2421 73.722 48.0301 57.25C53.2381 47.487 57.5001 38.6 57.5001 37.5C57.5001 36.4 53.2581 27.512 48.0731 17.75C39.2941 1.221 38.4541 0 35.8461 0C34.0181 0 32.5671 0.781 31.6651 2.25Z" fill="white"/>
</svg>
