<svg width="60" height="75" viewBox="0 0 60 75" fill="none" xmlns="http://www.w3.org/2000/svg">
<path fill-rule="evenodd" clip-rule="evenodd" d="M11.97 17.719C6.762 27.464 2.368 36.153 2.206 37.027C2.044 37.901 6.314 46.823 11.696 56.853C21.253 74.668 21.55 75.084 24.471 74.795C27.252 74.521 28.157 73.205 37.352 56.06L47.242 37.62L41.956 27.56C39.048 22.027 36.09 16.643 35.383 15.597C34.159 13.786 34.035 13.828 32.831 16.471C31.666 19.028 31.951 19.976 36.43 28.418L41.295 37.588L33.011 53.044C28.454 61.545 24.612 68.639 24.472 68.808C24.104 69.253 7.747 38.693 7.715 37.5C7.7 36.95 12.033 28.484 17.344 18.686C22.655 8.888 27 0.675 27 0.436C27 0.196 25.749 0 24.22 0C21.641 0 20.756 1.281 11.97 17.719ZM31.665 2.25C30.906 3.488 26.338 11.893 21.515 20.929L12.746 37.358L18.039 47.429C20.95 52.968 23.91 58.357 24.617 59.403C25.841 61.214 25.965 61.172 27.169 58.529C28.334 55.972 28.049 55.024 23.57 46.582L18.705 37.412L26.989 21.956C31.546 13.455 35.388 6.361 35.528 6.192C35.904 5.737 52.257 36.326 52.265 37.5C52.27 38.05 47.937 46.53 42.637 56.344C37.336 66.159 33 74.371 33 74.594C33 74.817 34.251 75 35.78 75C38.359 75 39.242 73.722 48.03 57.25C53.238 47.487 57.5 38.6 57.5 37.5C57.5 36.4 53.258 27.512 48.073 17.75C39.294 1.221 38.454 0 35.846 0C34.018 0 32.567 0.781 31.665 2.25Z" fill="white"/>
</svg>
