<svg width="90" height="58" viewBox="0 0 90 58" fill="none" xmlns="http://www.w3.org/2000/svg">
<path fill-rule="evenodd" clip-rule="evenodd" d="M42.1797 55.0488C37.4607 52.1248 33.9842 42.034 33.9842 30.0448C33.9842 29.6049 33.9878 29.1713 33.9971 28.7377L34.0028 28.744C20.8775 26.7034 11.3942 21.113 11.1513 14.5022L11.1128 14.5784C7.90127 18.5266 6.06816 23.0915 6.06816 27.9555C6.06816 42.2683 21.9502 53.9957 42.0948 55.0329L42.1797 55.0488ZM0 28.9998C0 12.9848 20.1464 0 45 0C69.8529 0 90 12.9848 90 28.9998C90 45.0148 69.8526 58 45 58C20.1464 58 0 45.0145 0 28.9998ZM45 4.18527C49.7978 4.18527 53.8788 11.3849 55.3906 21.4305L55.3963 21.4153C64.7302 19.978 71.2656 16.6624 71.2656 12.8042C71.2656 7.62577 59.5048 3.43274 45 3.43274C30.4942 3.43274 18.7345 7.62613 18.7345 12.8042C18.7345 16.6624 25.2688 19.978 34.6037 21.4153L34.6094 21.4305C36.1212 11.3852 40.2032 4.18527 45 4.18527ZM47.9044 55.0326C68.049 53.9957 83.9333 42.2679 83.9333 27.9552C83.9333 23.0915 82.098 18.5266 78.8869 14.5781L78.8476 14.5019C78.6048 21.1126 69.1239 26.7031 55.9972 28.7437L56.003 28.7373C56.0119 29.1709 56.0165 29.6045 56.0165 30.0445C56.0165 42.0337 52.5375 52.1245 47.8214 55.0485L47.9044 55.0326ZM45 22.177C47.1494 22.177 49.239 22.0864 51.2383 21.9121L51.2347 21.9152C50.2397 15.4756 47.8231 10.9308 44.9993 10.9308C42.1754 10.9308 39.7592 15.4756 38.7628 21.9152L38.7592 21.9121C40.7585 22.0864 42.8488 22.177 44.9982 22.177H45ZM45 46.0242C48.612 46.0242 51.5585 38.5882 51.7158 29.2616L51.7351 29.2683C49.5578 29.4676 47.3057 29.5717 45.0004 29.5717C42.6929 29.5717 40.4429 29.4676 38.2657 29.2683L38.286 29.2616C38.4407 38.5879 41.3866 46.0242 45 46.0242Z" fill="white"/>
</svg>
