<svg width="85" height="83" viewBox="0 0 85 83" fill="none" xmlns="http://www.w3.org/2000/svg">
<path d="M40.3139 0.083522C27.0017 0.733062 14.6457 7.61269 7.13648 18.5542C5.07403 21.5732 3.37719 24.9399 2.19597 28.3705C-0.372725 35.8265 -0.691467 43.8131 1.25849 51.5161C3.63968 60.9298 9.4708 69.3373 17.6362 75.1191C26.3079 81.276 37.0608 83.9748 47.7762 82.6849C56.8416 81.5962 65.382 77.5892 72.0194 71.3316C78.2536 65.4583 82.4629 57.984 84.1691 49.7687C84.7129 47.1614 84.9191 45.2768 84.9847 42.4774C85.0597 39.2755 84.8628 36.7962 84.3004 33.9236C81.6285 20.0546 71.8413 8.38116 58.4353 3.06591C53.9448 1.28197 49.4918 0.33053 44.4669 0.074374C42.5263 -0.026259 42.5451 -0.0262593 40.3139 0.083522ZM46.8106 5.05112C54.376 5.97512 61.1915 8.87518 66.8726 13.6049C72.4881 18.2706 76.7443 24.702 78.6661 31.4535C80.4192 37.6013 80.5879 43.5569 79.1817 49.6132C76.163 62.6315 65.9351 73.1705 52.7636 76.8115C49.0137 77.8453 45.6387 78.2662 41.6732 78.1747C39.3482 78.1289 37.7358 77.9734 35.7015 77.5983C20.4487 74.8263 8.48645 63.2078 5.57089 48.3324C5.07403 45.7892 4.99903 44.8926 4.99903 41.5168C4.99903 38.2142 5.07403 37.3177 5.53339 34.8842C7.98021 21.8934 17.5894 11.0525 30.4516 6.77103C33.3859 5.8013 35.9921 5.27983 39.8732 4.88645C40.792 4.79497 45.6481 4.9139 46.8106 5.05112Z" fill="white"/>
<path d="M40.4926 11.0552C37.7177 11.3205 36.6396 11.4852 34.8677 11.9335C34.249 12.089 33.7334 12.2262 33.7146 12.2354C33.6959 12.2537 34.5678 14.3212 37.7739 21.8412C38.6083 23.799 40.0051 27.0833 40.877 29.1325C41.8426 31.4014 42.4801 32.8102 42.527 32.737C42.5645 32.673 43.7363 29.9285 45.1425 26.635C46.5394 23.3416 48.4612 18.8222 49.4174 16.5809C50.3736 14.3395 51.1799 12.4458 51.1986 12.3634C51.2268 12.2537 51.0768 12.1805 50.5049 12.0249C49.4174 11.7413 47.58 11.3937 46.2581 11.229C45.1613 11.0918 41.3176 10.9729 40.4926 11.0552Z" fill="white"/>
<path d="M25.1649 16.1601C23.2899 17.386 21.6962 18.6942 20.0556 20.3501C18.9025 21.512 17.1025 23.6161 17.1025 23.7991C17.1025 23.8631 19.3525 28.5471 23.4493 37.0277C24.2555 38.6836 25.0711 40.3761 25.2586 40.7786C25.4555 41.1811 26.6367 43.6329 27.8835 46.2219C29.1398 48.8109 30.6491 51.958 31.2585 53.2205C31.8585 54.4738 32.4116 55.6265 32.4959 55.7729L32.6366 56.0291L33.3678 54.3091C33.7709 53.3577 34.6709 51.217 35.3834 49.5611C36.0865 47.8961 36.9396 45.9109 37.2583 45.1424L37.8489 43.7518L42.4801 43.7701L47.1112 43.7976L48.4893 47.0453C49.2581 48.8292 50.4205 51.5738 51.0955 53.1473C51.7611 54.7117 52.333 55.9742 52.3611 55.9376C52.4174 55.8827 52.8486 54.9953 54.133 52.3056C54.3298 51.9031 55.5204 49.433 56.7766 46.8166C59.4203 41.3458 60.8266 38.4274 62.3828 35.198C62.9828 33.9356 64.3327 31.1361 65.3827 28.9771C67.717 24.1467 67.8201 23.918 67.8201 23.7991C67.8201 23.671 66.7608 22.3445 65.8983 21.3839C64.089 19.3804 61.989 17.5873 59.636 16.0503C58.9235 15.5929 58.3047 15.2087 58.2579 15.2087C58.2204 15.2087 55.736 20.7801 52.7549 27.5774L47.3269 39.9552H42.4707H37.624L32.2053 27.614C29.2241 20.8167 26.7492 15.2544 26.7023 15.2361C26.6554 15.227 25.9617 15.6387 25.1649 16.1601Z" fill="white"/>
<path d="M12.5181 32.9291C11.965 34.7862 11.5619 36.8812 11.3744 38.903C11.215 40.6504 11.3182 44.0628 11.5713 45.7186C12.2838 50.3752 13.9056 54.5012 16.493 58.2978C17.7493 60.1366 18.6399 61.1887 20.5148 63.0092C22.8398 65.2689 24.7991 66.7235 27.4615 68.1506C28.774 68.8551 30.1334 69.4863 30.199 69.4223C30.2271 69.3948 29.7771 68.3976 29.2146 67.1992C28.6428 66.0008 28.0522 64.7566 27.9022 64.4272C27.3491 63.2562 18.9024 45.3527 17.9274 43.2943C17.768 42.965 17.2899 41.9586 16.868 41.0529C16.4462 40.1472 15.9399 39.0769 15.7431 38.6743C15.5556 38.2718 14.8056 36.6891 14.0837 35.1522C13.3619 33.6152 12.7619 32.3436 12.7431 32.3345C12.7244 32.3162 12.6213 32.5815 12.5181 32.9291Z" fill="white"/>
<path d="M70.7734 35.3535C70.014 36.9819 67.7453 41.7848 65.7297 46.0389C63.7235 50.2929 60.8267 56.4224 59.2893 59.6701C57.7612 62.9178 56.3925 65.7995 56.2612 66.074C55.0237 68.7087 54.705 69.404 54.7331 69.4315C54.7894 69.4863 56.7018 68.5807 57.8362 67.9494C62.9267 65.1408 67.2391 60.8319 69.9672 55.8369C71.8984 52.2781 73.0046 48.8474 73.5014 44.8221C73.7077 43.1754 73.6983 39.8271 73.5014 38.1255C73.2577 36.1311 72.4327 32.4077 72.2265 32.4077C72.1983 32.4077 71.5421 33.7342 70.7734 35.3535Z" fill="white"/>
<path d="M42.349 51.2168C42.3115 51.3083 40.3803 55.7362 38.046 61.0423L33.8086 70.6939L34.1555 70.8128C34.6804 70.9958 36.8273 71.4441 37.9148 71.5996C42.0209 72.1851 46.8864 71.9106 50.4488 70.9043L51.1238 70.7122L50.9457 70.2913C50.4863 69.1844 42.5271 51.1528 42.4803 51.0979C42.4428 51.0705 42.3865 51.1253 42.349 51.2168Z" fill="white"/>
</svg>
