<svg width="18" height="18" viewBox="0 0 18 18" fill="none" xmlns="http://www.w3.org/2000/svg">
<path d="M17.1558 8.99993C17.1547 8.58202 17.0055 8.17806 16.7346 7.85983C16.4638 7.54156 16.0888 7.32967 15.6765 7.2618V4.9443C17.7858 4.55899 17.5552 1.49618 15.3952 1.44556C13.2324 1.49618 13.0018 4.55899 15.114 4.9443V7.2618C14.7491 7.32126 14.4121 7.49392 14.1506 7.75534C13.8892 8.01679 13.7165 8.35378 13.6571 8.71868H11.3396C11.2793 8.35412 11.1064 8.01755 10.8451 7.75627C10.5838 7.49499 10.2473 7.32208 9.8827 7.2618V4.9443C11.9949 4.55899 11.7615 1.49618 9.60145 1.44556C7.43864 1.49618 7.20801 4.55899 9.3202 4.9443V7.2618C8.9577 7.32421 8.62363 7.49805 8.36451 7.75917C8.10543 8.02031 7.93417 8.3557 7.87458 8.71868H2.88801V4.9443C4.99739 4.55618 4.76676 1.49618 2.60677 1.44556C0.443957 1.49618 0.216145 4.5618 2.32552 4.9443V8.99993C2.32552 9.07452 2.35515 9.14607 2.4079 9.1988C2.46064 9.25156 2.53218 9.28118 2.60677 9.28118H7.87458C7.93485 9.64576 8.10776 9.98231 8.36904 10.2436C8.63032 10.5049 8.9669 10.6778 9.33145 10.7381V13.0556C7.21926 13.4409 7.44989 16.5037 9.6127 16.5543C11.7755 16.5037 12.0061 13.4409 9.89395 13.0556V10.7381C10.2565 10.6757 10.5905 10.5018 10.8496 10.2407C11.1087 9.97958 11.28 9.64419 11.3396 9.28118H13.6571C13.7165 9.6461 13.8892 9.98309 14.1506 10.2445C14.4121 10.5059 14.7491 10.6786 15.114 10.7381V13.0556C13.0018 13.4409 13.2324 16.5037 15.3952 16.5543C17.5552 16.5037 17.7858 13.4409 15.6765 13.0556V10.7381C16.0888 10.6702 16.4638 10.4583 16.7346 10.1401C17.0055 9.82183 17.1547 9.41784 17.1558 8.99993Z" fill="#4A4A50"/>
</svg>
