<svg width="16" height="16" viewBox="0 0 16 16" fill="none" xmlns="http://www.w3.org/2000/svg">
<path d="M7.85936 1.39064C7.07186 1.53439 6.20936 1.92189 5.66561 2.38126C5.59374 2.44064 4.45624 3.53126 3.13436 4.80314C1.63436 6.25001 0.684362 7.18751 0.599987 7.30939C0.0874868 8.03751 -0.125013 9.08751 0.0812368 9.85939C0.253112 10.5063 1.17499 13.4563 1.25624 13.625C1.39061 13.9031 1.77811 14.2906 2.08124 14.4469C2.51874 14.6719 1.95936 14.6563 9.15936 14.6563H15.6469L15.75 14.5875C15.8062 14.5469 15.8844 14.475 15.9187 14.4281L15.9844 14.3406V8.00001V1.65939L15.9187 1.57189C15.8844 1.52501 15.8062 1.45314 15.75 1.41251L15.6469 1.34376L11.8625 1.34689C8.93436 1.35001 8.02811 1.35939 7.85936 1.39064ZM15 8.00001V13.6563H8.88436H2.76561L2.60936 13.5813C2.41561 13.4938 2.27499 13.375 2.18749 13.2344C2.14999 13.175 1.87499 12.3188 1.57186 11.3375L1.02499 9.54689L1.02186 9.20314C1.01561 8.70001 1.15936 8.23751 1.43124 7.88126C1.58436 7.67814 6.17811 3.25314 6.43749 3.05939C6.67811 2.87814 7.17186 2.62814 7.49999 2.51876C8.03436 2.34376 7.89374 2.35001 11.5875 2.34689L15 2.34376V8.00001Z" fill="#4A4A50"/>
<path d="M8.0375 3.15623C7.61875 3.2656 7.42187 3.39998 6.6875 4.06248C2.70625 7.6531 2.25 8.07498 2.2 8.20623C2.1125 8.43748 2.21562 8.70935 2.4375 8.82185C2.54062 8.87185 2.86875 8.87498 8.23437 8.86873L13.9219 8.85935L14.025 8.78748C14.2469 8.6281 14.2344 8.79998 14.2344 5.98435V3.4531L14.1594 3.33123C14.1125 3.25623 14.0344 3.1906 13.9562 3.1531C13.8344 3.09685 13.6937 3.09373 11.0469 3.09685C8.4125 3.09685 8.25312 3.09998 8.0375 3.15623ZM13.2187 5.98435V7.87498H8.60937C6.075 7.87498 4 7.86873 4 7.86248C4 7.84373 7.84375 4.36873 7.95937 4.28435C8.0125 4.24373 8.13125 4.18435 8.225 4.1531C8.38125 4.09998 8.54062 4.09685 10.8062 4.09373H13.2187V5.98435Z" fill="#4A4A50"/>
<path d="M12.0718 9.65936C11.9374 9.69686 11.7906 9.85311 11.7468 9.99998C11.6968 10.1687 11.7343 10.3281 11.8624 10.4687C12.0218 10.6437 12.1531 10.6625 13.0874 10.65C13.7468 10.6406 13.8749 10.6312 13.9593 10.5875C14.1687 10.4719 14.2843 10.2156 14.2156 10.0062C14.1687 9.85311 14.0124 9.69373 13.8749 9.65623C13.7374 9.61873 12.2062 9.62186 12.0718 9.65936Z" fill="#4A4A50"/>
</svg>
