<svg width="19" height="19" viewBox="0 0 19 19" fill="none" xmlns="http://www.w3.org/2000/svg">
<path d="M17.0941 2.96875H9.15563C8.47504 2.9691 7.80209 3.11223 7.18027 3.38888C6.55844 3.66553 6.00157 4.06955 5.54563 4.57484L1.76344 8.76375C1.2004 9.38839 0.889362 10.1998 0.890629 11.0408V13.1367C0.890629 13.5969 0.890629 14.5647 0.890629 15.0308C0.890629 15.3001 0.997599 15.5583 1.18801 15.7487C1.37841 15.9391 1.63666 16.0461 1.90594 16.0461H17.0941C17.3633 16.0461 17.6216 15.9391 17.812 15.7487C18.0024 15.5583 18.1094 15.3001 18.1094 15.0308C18.1094 14.5588 18.1094 13.5998 18.1094 13.1367V3.96922C18.1055 3.70252 17.9968 3.44807 17.8068 3.26086C17.6168 3.07365 17.3608 2.96872 17.0941 2.96875ZM2.20579 9.16156L5.98797 4.95781C6.38916 4.51681 6.87833 4.16479 7.42393 3.92446C7.96953 3.68413 8.55945 3.56083 9.15563 3.5625H17.0941C17.2033 3.56243 17.3084 3.6048 17.387 3.68068C17.4657 3.75656 17.5118 3.86001 17.5156 3.96922V12.8398H1.48438V11.0408C1.48354 10.3466 1.74064 9.67686 2.20579 9.16156ZM17.5156 13.6562H1.48438V13.4217H17.5156V13.6562ZM17.0941 15.4375H1.90594C1.79666 15.4376 1.69162 15.3952 1.61298 15.3193C1.53433 15.2434 1.48823 15.14 1.48438 15.0308V14.25H17.5156V15.0189C17.5172 15.0753 17.5075 15.1314 17.487 15.1839C17.4665 15.2364 17.4357 15.2843 17.3964 15.3247C17.3571 15.3651 17.3101 15.3972 17.2582 15.4192C17.2062 15.4411 17.1504 15.4524 17.0941 15.4523V15.4375Z" fill="#4A4A50"/>
<path d="M15.9953 10.4321H13.6203C13.4203 10.4321 13.2285 10.5116 13.0871 10.653C12.9457 10.7944 12.8662 10.9862 12.8662 11.1862C12.8662 11.3862 12.9457 11.578 13.0871 11.7194C13.2285 11.8608 13.4203 11.9403 13.6203 11.9403H15.9953C16.1953 11.9403 16.3871 11.8608 16.5285 11.7194C16.6699 11.578 16.7493 11.3862 16.7493 11.1862C16.7493 10.9862 16.6699 10.7944 16.5285 10.653C16.3871 10.5116 16.1953 10.4321 15.9953 10.4321ZM15.9953 11.3465H13.6203C13.5778 11.3465 13.537 11.3296 13.5069 11.2995C13.4769 11.2695 13.46 11.2287 13.46 11.1862C13.46 11.1437 13.4769 11.1029 13.5069 11.0728C13.537 11.0428 13.5778 11.0259 13.6203 11.0259H15.9953C16.0378 11.0259 16.0786 11.0428 16.1086 11.0728C16.1387 11.1029 16.1556 11.1437 16.1556 11.1862C16.1556 11.2287 16.1387 11.2695 16.1086 11.2995C16.0786 11.3296 16.0378 11.3465 15.9953 11.3465Z" fill="#4A4A50"/>
<path d="M4.71148 10.1709C5.23695 10.1709 16.1055 10.1709 16.922 10.1709C17.0007 10.1709 17.0762 10.1397 17.1319 10.084C17.1876 10.0283 17.2188 9.9528 17.2188 9.87406V4.15625C17.2188 4.07751 17.1876 4.002 17.1319 3.94633C17.0762 3.89065 17.0007 3.85938 16.922 3.85938H9.1557C8.60031 3.85971 8.05117 3.97668 7.54386 4.20273C7.03654 4.42877 6.58235 4.75884 6.2107 5.17156L4.00492 7.62078C3.9844 7.65037 3.96556 7.68109 3.94852 7.71281C3.94852 7.74844 3.94852 7.78406 3.92773 7.81969V9.39906C3.93161 9.60462 4.0158 9.80049 4.16228 9.94475C4.30876 10.089 4.50589 10.1702 4.71148 10.1709ZM4.71148 9.57719C4.66031 9.57719 4.61122 9.55686 4.57503 9.52067C4.53885 9.48448 4.51852 9.4354 4.51852 9.38422V8.07203H7.15773L6.91727 8.92109C6.86327 9.10956 6.74957 9.27541 6.59325 9.39372C6.43693 9.51203 6.24643 9.57641 6.05039 9.57719H4.71148ZM6.65008 5.55453C6.96766 5.20616 7.3547 4.92817 7.78625 4.73847C8.2178 4.54877 8.6843 4.45157 9.1557 4.45312H16.6251V9.57719H7.24086C7.49617 9.29812 7.64758 8.46391 7.76633 8.11062C7.78688 8.03656 7.79034 7.9588 7.77645 7.8832C7.76257 7.8076 7.7317 7.73615 7.68617 7.67422C7.63962 7.61292 7.57944 7.5633 7.51039 7.52929C7.44135 7.49528 7.36533 7.47782 7.28836 7.47828H4.91336L6.65008 5.55453Z" fill="#4A4A50"/>
<path d="M11.1805 7.22307C11.2584 7.22274 11.333 7.19182 11.3883 7.13697L12.4036 6.12166C12.4315 6.09406 12.4536 6.06123 12.4686 6.02505C12.4837 5.98887 12.4915 5.95007 12.4915 5.91088C12.4915 5.87169 12.4837 5.83289 12.4686 5.79671C12.4536 5.76053 12.4315 5.7277 12.4036 5.7001C12.348 5.64481 12.2728 5.61377 12.1943 5.61377C12.1159 5.61377 12.0407 5.64481 11.985 5.7001L10.9846 6.71541C10.9435 6.75603 10.9152 6.80775 10.9031 6.86422C10.891 6.9207 10.8956 6.97948 10.9164 7.03337C10.9372 7.08725 10.9733 7.1339 11.0202 7.1676C11.0671 7.20129 11.1228 7.22057 11.1805 7.22307Z" fill="#4A4A50"/>
<path d="M13.1934 6.91117L12.1722 7.92648C12.1167 7.98238 12.0857 8.05805 12.0859 8.13683C12.0862 8.21561 12.1178 8.29105 12.1737 8.34656C12.2296 8.40207 12.3052 8.4331 12.384 8.43282C12.4628 8.43254 12.5383 8.40098 12.5938 8.34507L13.6061 7.32976C13.6494 7.2729 13.6707 7.20233 13.6662 7.131C13.6616 7.05967 13.6315 6.99238 13.5813 6.94148C13.5312 6.89059 13.4643 6.8595 13.393 6.85393C13.3218 6.84836 13.2509 6.86868 13.1934 6.91117Z" fill="#4A4A50"/>
<path d="M11.0885 8.50843C11.1664 8.5081 11.2411 8.47718 11.2964 8.42233L13.707 6.01171C13.7556 5.95492 13.781 5.88186 13.7782 5.80715C13.7753 5.73243 13.7443 5.66155 13.6914 5.60868C13.6385 5.55581 13.5677 5.52484 13.493 5.52195C13.4182 5.51906 13.3452 5.54448 13.2884 5.59311L10.8778 8.01561C10.8407 8.05771 10.8163 8.10945 10.8074 8.16483C10.7986 8.22021 10.8056 8.27697 10.8276 8.32854C10.8497 8.38011 10.8859 8.42438 10.9321 8.45621C10.9783 8.48805 11.0325 8.50615 11.0885 8.50843Z" fill="#4A4A50"/>
</svg>
