<svg width="24" height="24" viewBox="0 0 24 24" fill="none" xmlns="http://www.w3.org/2000/svg">
<path d="M21.093 2.33352C20.8355 2.14452 20.513 2.09002 20.2085 2.18552C18.8675 2.60302 17.1475 2.88202 15.3645 2.96952C13.294 3.07402 11.2755 2.90702 9.82449 2.51652C8.37999 2.12852 6.50599 1.95552 4.50049 2.01302V1.49902C4.50049 0.946523 4.05299 0.499023 3.50049 0.499023C2.94799 0.499023 2.50049 0.946523 2.50049 1.49902V22.499C2.50049 23.0515 2.94799 23.499 3.50049 23.499C4.05299 23.499 4.50049 23.0515 4.50049 22.499V15.0135C6.40199 14.957 8.22599 15.1225 9.56499 15.482C10.8285 15.8215 12.4205 15.9995 14.1415 15.9995C14.559 15.9995 14.984 15.989 15.4135 15.968C17.436 15.868 19.36 15.5365 20.83 15.0335C21.231 14.8975 21.5005 14.517 21.5005 14.087V3.14002C21.5005 2.82302 21.348 2.52152 21.0935 2.33402L21.093 2.33352ZM15.3645 14.97C14.379 15.0195 13.407 15.006 12.5 14.9375V11.19C11.48 11.115 10.52 10.97 9.69499 10.75C9.31999 10.65 8.91999 10.565 8.49999 10.5V14.241C7.51499 14.083 6.41249 13.9995 5.24749 13.9995C5.00099 13.9995 4.75149 14.003 4.49999 14.0105V10.267C5.89099 10.227 7.28099 10.295 8.49999 10.5V6.99952C7.28099 6.79402 5.89099 6.72702 4.49999 6.76702V3.01102C5.93599 2.96652 7.32749 3.05302 8.49999 3.25352V6.99952C8.91999 7.06452 9.31999 7.14952 9.69499 7.24952C10.52 7.46952 11.48 7.61452 12.5 7.68952V3.94002C13.421 4.00552 14.4025 4.01752 15.413 3.96852C15.779 3.95052 16.141 3.92252 16.5 3.88902V7.63952C17.9425 7.50452 19.3425 7.24402 20.5025 6.86502L20.505 10.3645C19.3445 10.744 17.9435 11.005 16.5 11.14V14.8855C16.1265 14.921 15.7485 14.951 15.3645 14.97Z" fill="#BD192B"/>
<path d="M15.39 11.22C15.76 11.2 16.135 11.175 16.5 11.14V7.64001C16.135 7.67501 15.76 7.70001 15.39 7.72001C14.415 7.77001 13.435 7.76001 12.5 7.69001V11.19C13.435 11.26 14.415 11.27 15.39 11.22Z" fill="#BD192B"/>
</svg>
