<svg width="26" height="19" viewBox="0 0 26 19" fill="none" xmlns="http://www.w3.org/2000/svg">
<g clip-path="url(#clip0_402_15)">
<path d="M25.7847 2.04646C25.5516 1.44574 25.1364 0.928302 24.5944 0.562803C24.0524 0.197304 23.4092 0.00102149 22.75 0L3.25004 0C2.57969 0.00173932 1.92628 0.205415 1.37936 0.583118C0.832443 0.960821 0.418776 1.49407 0.195045 2.10979C0.0641201 2.44746 -0.00197841 2.80571 4.50905e-05 3.16667V15.8333C0.000546438 16.4637 0.194123 17.0796 0.555991 17.6021C0.917859 18.1247 1.43155 18.5301 2.0313 18.7665C2.41791 18.9214 2.83201 19.0007 3.25004 19H22.75C23.1473 19.0022 23.541 18.9268 23.9079 18.7783C24.6245 18.5219 25.2228 18.0233 25.5938 17.3731C25.8614 16.9019 26.0012 16.3719 26 15.8333V3.16667C25.9997 2.78353 25.9267 2.40376 25.7847 2.04646ZM2.16536 3.16667C2.16643 2.88669 2.28105 2.61847 2.48424 2.4205C2.68742 2.22252 2.9627 2.11083 3.25004 2.10979H22.75C23.0374 2.11083 23.3127 2.22252 23.5159 2.4205C23.719 2.61847 23.8337 2.88669 23.8347 3.16667V3.36854L15.1979 9.70187L13.4063 11.0517L13 11.3485L12.5938 11.0398L10.7819 9.72167L2.16536 3.40812V3.16667ZM2.16536 15.8333V6.04833L8.98223 11.0398L2.18973 16.0115C2.1747 15.9532 2.16652 15.8934 2.16536 15.8333ZM4.60286 16.8902L10.79 12.3619L12.35 13.5098C12.5368 13.6485 12.7652 13.7236 13 13.7236C13.2349 13.7236 13.4632 13.6485 13.65 13.5098L15.1979 12.3698L21.3404 16.8902H4.60286ZM23.8347 15.8333C23.8347 15.9083 23.8238 15.983 23.8022 16.055L16.9975 11.0398L23.8347 6.00479V15.8333Z" fill="white"/>
</g>
<defs>
<clipPath id="clip0_402_15">
<rect width="26" height="19" fill="white"/>
</clipPath>
</defs>
</svg>
