<svg width="21" height="19" viewBox="0 0 21 19" fill="none" xmlns="http://www.w3.org/2000/svg">
<path d="M19.3805 12.4493C19.0329 11.6171 18.7002 10.669 18.686 9.55842C18.6854 9.52897 18.6837 9.51852 18.6837 9.51852C18.6877 8.93807 18.8301 8.61792 19.009 8.19612C19.1896 7.77955 19.4038 7.26418 19.401 6.51558C19.401 6.33175 19.389 6.13273 19.3628 5.9166C19.4272 5.91375 19.4921 5.91043 19.5565 5.9071C19.4602 4.50443 18.9464 3.15305 18.0764 1.9703C17.8514 2.08525 17.6275 2.2002 17.403 2.31515C17.0812 1.8791 16.708 1.46728 16.2842 1.08775C15.9948 1.31243 15.7054 1.5352 15.4165 1.75988C15.7863 2.0919 16.1127 2.45053 16.3924 2.83243C16.6032 3.11838 16.7866 3.4162 16.945 3.72305C17.3113 4.44125 17.5301 5.21122 17.5848 6.0021C17.7973 5.99212 18.0109 5.9812 18.2234 5.9717C18.249 6.17453 18.2616 6.35598 18.2616 6.51558C18.2576 7.125 18.114 7.45702 17.9363 7.87598C17.7574 8.28875 17.5421 8.79225 17.5443 9.51852C17.5455 9.54892 17.546 9.56745 17.546 9.57505C17.5609 10.8333 17.9431 11.8973 18.3037 12.7613C18.6718 13.622 18.9902 14.3075 18.9777 14.7013C18.964 14.9535 18.9184 15.0613 18.6701 15.2418C18.4399 15.3933 18.2707 15.4323 18.1385 15.4328C17.8839 15.4484 17.4526 15.2133 17.0891 14.5497C16.7314 13.9028 16.487 12.9243 16.4887 11.7672C16.4887 11.5363 16.4989 11.2974 16.5195 11.0523C16.581 10.2714 16.6089 9.595 16.6106 9.00553C16.6021 7.14685 16.3446 6.15553 15.8501 5.53185C15.5003 5.07965 14.991 4.91863 14.5831 4.86685V1.9C14.5831 0.850725 13.5633 0 12.3043 0H4.10181C2.84278 0 1.82302 0.850725 1.82302 1.9V17.1H0V19H16.4072V17.1H14.5842V5.83395C14.6919 5.8653 14.7842 5.928 14.9084 6.0648C15.1738 6.37355 15.4786 7.2257 15.4706 9.00505C15.4718 9.56792 15.4433 10.2244 15.3829 10.9877C15.3613 11.2528 15.3504 11.5135 15.3504 11.7667C15.3516 13.034 15.6051 14.1265 16.0523 14.9445C16.4921 15.7444 17.1718 16.3671 18.1385 16.3832C18.5789 16.3832 19.0073 16.2336 19.3833 15.9814C19.8903 15.656 20.1308 15.161 20.1171 14.7008C20.1045 13.9811 19.7217 13.2862 19.3805 12.4493ZM12.7612 7.22H3.64605V3.42H12.7612V7.22Z" fill="#4A4A50"/>
</svg>
