<svg width="13" height="15" viewBox="0 0 13 15" fill="none" xmlns="http://www.w3.org/2000/svg">
<g clip-path="url(#clip0_270_2)">
<path d="M12.5236 9.82837C12.2991 9.17137 12.0841 8.42287 12.0749 7.54612C12.0745 7.52287 12.0734 7.51462 12.0734 7.51462C12.076 7.05637 12.168 6.80362 12.2836 6.47062C12.4003 6.14175 12.5387 5.73487 12.5369 5.14388C12.5369 4.99875 12.5292 4.84163 12.5122 4.671C12.5538 4.66875 12.5958 4.66612 12.6374 4.6635C12.5752 3.55612 12.2431 2.48925 11.681 1.5555C11.5356 1.64625 11.3909 1.737 11.2458 1.82775C11.0378 1.4835 10.7967 1.15837 10.5228 0.85875C10.3358 1.03612 10.1488 1.212 9.96214 1.38937C10.2011 1.6515 10.412 1.93462 10.5928 2.23612C10.729 2.46187 10.8475 2.697 10.9498 2.93925C11.1866 3.50625 11.3279 4.11412 11.3633 4.7385C11.5006 4.73062 11.6386 4.722 11.7759 4.7145C11.7925 4.87462 11.8006 5.01788 11.8006 5.14388C11.798 5.625 11.7053 5.88712 11.5904 6.21787C11.4748 6.54375 11.3357 6.94125 11.3371 7.51462C11.3379 7.53862 11.3382 7.55325 11.3382 7.55925C11.3478 8.55263 11.5948 9.39262 11.8279 10.0747C12.0657 10.7542 12.2715 11.2954 12.2634 11.6063C12.2545 11.8054 12.2251 11.8905 12.0646 12.033C11.9158 12.1526 11.8065 12.1834 11.7211 12.1838C11.5565 12.1961 11.2779 12.0105 11.043 11.4866C10.8118 10.9759 10.6539 10.2034 10.655 9.28988C10.655 9.10763 10.6616 8.919 10.6749 8.7255C10.7146 8.109 10.7326 7.575 10.7338 7.10962C10.7282 5.64225 10.5618 4.85962 10.2423 4.36725C10.0163 4.01025 9.68714 3.88313 9.42356 3.84225V1.5C9.42356 0.671625 8.76459 0 7.95101 0H2.65058C1.837 0 1.17804 0.671625 1.17804 1.5V13.5H0V15H10.6023V13.5H9.42429V4.60575C9.49387 4.6305 9.55351 4.68 9.63376 4.788C9.80531 5.03175 10.0023 5.7045 9.99711 7.10925C9.99785 7.55363 9.97944 8.07187 9.94042 8.6745C9.92643 8.88375 9.91944 9.08962 9.91944 9.2895C9.92017 10.29 10.084 11.1525 10.373 11.7982C10.6572 12.4297 11.0964 12.9214 11.7211 12.9341C12.0057 12.9341 12.2825 12.816 12.5255 12.6169C12.8531 12.36 13.0085 11.9692 12.9996 11.6059C12.9915 11.0377 12.7441 10.4891 12.5236 9.82837ZM8.24626 5.7H2.35607V2.7H8.24626V5.7Z" fill="#BD192B"/>
</g>
<defs>
<clipPath id="clip0_270_2">
<rect width="13" height="15" fill="white"/>
</clipPath>
</defs>
</svg>
