<svg width="22" height="21" viewBox="0 0 22 21" fill="none" xmlns="http://www.w3.org/2000/svg">
<g clip-path="url(#clip0_675_73)">
<path d="M15.2217 19.3082C15.2217 19.7769 15.6016 20.1568 16.0703 20.1568C16.5389 20.1568 16.9189 19.7769 16.9189 19.3082V15.1533C16.2651 15.145 15.6984 15.0807 15.2217 14.9922V19.3082Z" fill="#BD192B"/>
<path d="M17.2017 19.3081C17.2017 19.7768 17.5815 20.1567 18.0503 20.1567C18.5187 20.1567 18.8989 19.7768 18.8989 19.3081V14.9922C18.4222 15.0806 17.8554 15.1449 17.2017 15.1532V19.3081Z" fill="#BD192B"/>
<path d="M4.24386 3.81877C5.29838 3.81877 6.15324 2.96391 6.15324 1.90938C6.15324 0.85486 5.29838 0 4.24386 0C3.18933 0 2.33447 0.85486 2.33447 1.90938C2.33447 2.96391 3.18933 3.81877 4.24386 3.81877Z" fill="#BD192B"/>
<path d="M16.6467 4.43562C17.6279 4.66402 18.6085 4.05391 18.8369 3.0727C19.0654 2.09149 18.4552 1.11094 17.4741 0.882377C16.4929 0.65398 15.5124 1.26425 15.2838 2.2453C15.0552 3.22651 15.6655 4.20723 16.6467 4.43562Z" fill="#BD192B"/>
<path d="M20.0232 6.09179C19.3207 5.26937 18.6443 5.07918 18.4455 5.04454C18.2552 4.99274 17.3354 4.74785 16.1111 4.50213C15.232 4.32619 14.1984 4.14942 13.1588 4.04443C13.1686 4.0034 13.1753 3.9609 13.1773 3.91713C13.195 3.54272 12.9059 3.22474 12.5315 3.20708C12.2928 3.19556 12.0574 3.19043 11.8257 3.19043C8.79576 3.19349 6.33851 4.07045 5.7371 4.30233H2.6046C2.59673 4.30233 2.58911 4.30324 2.58132 4.30349C2.42916 4.30457 2.17077 4.33639 1.87657 4.48473C1.41994 4.71097 0.927927 5.20614 0.583593 6.08343C0.235194 6.9642 0.00107774 8.23761 0 10.1603C0 10.6576 0.0159964 11.1981 0.0504671 11.7866C0.0716061 12.1475 0.371108 12.4258 0.727951 12.4258C0.741299 12.4258 0.754639 12.4255 0.768065 12.4247C1.14215 12.4026 1.4279 12.0815 1.40602 11.7072C1.37286 11.1426 1.35778 10.6285 1.35778 10.1603C1.35497 8.10568 1.65447 6.95135 1.94875 6.34887V19.0785C1.94875 19.6581 2.41864 20.1277 2.99792 20.1277C3.57736 20.1277 4.04725 19.6581 4.04725 19.0785V11.4179H4.44057V19.0785C4.44057 19.6581 4.91045 20.1277 5.48972 20.1277C6.06918 20.1277 6.53906 19.6581 6.53906 19.0785V5.45401C7.08809 5.26282 8.14057 4.9397 9.46007 4.73533C9.52736 5.01561 9.801 5.19942 10.0891 5.15011C10.4812 5.08249 10.9374 5.05158 11.4262 5.05174C12.6006 5.05075 13.9579 5.22901 15.1435 5.44116L13.383 14.0938C13.383 14.0938 13.4016 14.1048 13.4373 14.1239C13.7023 14.2649 14.9426 14.8576 17.0603 14.8576C19.178 14.8576 20.4183 14.2649 20.6833 14.1239C20.7191 14.1048 20.7377 14.0938 20.7377 14.0938L19.2787 6.92342C19.2856 6.93204 19.2922 6.93958 19.2992 6.94837C19.869 7.67698 20.5524 9.083 20.9015 11.7328C20.9381 12.0103 21.1751 12.2123 21.4478 12.2123C21.4718 12.2123 21.4962 12.2108 21.5205 12.2075C21.8224 12.1676 22.035 11.8906 21.9952 11.5885C21.6041 8.62364 20.7992 6.99593 20.0232 6.09179Z" fill="#BD192B"/>
<path d="M8.73633 19.5502C8.73633 19.9251 9.0403 20.2291 9.41522 20.2291C9.79013 20.2291 10.0942 19.9251 10.0942 19.5502V16.6797H10.3488V19.5502C10.3488 19.9251 10.6528 20.2291 11.0278 20.2291C11.4027 20.2291 11.7066 19.9251 11.7066 19.5502V15.1187H8.73633V19.5502Z" fill="#BD192B"/>
<path d="M12.5215 16.1425C12.525 16.1425 12.5285 16.1425 12.532 16.1425C12.7852 16.1426 12.9929 15.9403 12.9985 15.6861C13.0013 15.5618 13.0025 15.4408 13.0025 15.3231C13.002 13.5381 12.6939 12.4918 12.3389 11.863C11.9866 11.2332 11.5721 11.0457 11.4758 11.0176C11.4553 11.0109 11.4344 11.0062 11.4138 11.0023C11.3721 10.9887 11.3283 10.9795 11.2822 10.9795H10.7708H9.67203H9.16054C9.11413 10.9795 9.07038 10.9888 9.02861 11.0026C9.00789 11.0063 8.98734 11.0111 8.96695 11.0179C8.87057 11.0456 8.45629 11.2332 8.10375 11.8629C7.74856 12.4918 7.44043 13.538 7.43994 15.3231C7.43994 15.4404 7.4411 15.5618 7.44408 15.6874C7.45038 15.9412 7.65806 16.1427 7.91066 16.1427C7.91447 16.1427 7.91845 16.1426 7.92226 16.1425C8.17999 16.1362 8.38386 15.9218 8.37756 15.6644C8.37458 15.5477 8.37325 15.4341 8.37325 15.3231C8.37292 14.0416 8.54464 13.2238 8.73624 12.7141V14.9174H11.7065V12.714C11.8978 13.2233 12.0694 14.0424 12.069 15.3231C12.069 15.4336 12.0678 15.5478 12.0652 15.6657C12.0594 15.9233 12.264 16.1368 12.5215 16.1425Z" fill="#BD192B"/>
<path d="M10.2214 10.7246C11.0417 10.7246 11.7066 10.0597 11.7066 9.23951C11.7066 8.4193 11.0417 7.75439 10.2214 7.75439C9.40124 7.75439 8.73633 8.4193 8.73633 9.23951C8.73633 10.0597 9.40124 10.7246 10.2214 10.7246Z" fill="#BD192B"/>
</g>
<defs>
<clipPath id="clip0_675_73">
<rect width="22" height="20.2293" fill="white"/>
</clipPath>
</defs>
</svg>
