<?xml version="1.0" standalone="no"?>
<!DOCTYPE svg PUBLIC "-//W3C//DTD SVG 20010904//EN"
 "http://www.w3.org/TR/2001/REC-SVG-20010904/DTD/svg10.dtd">
<svg version="1.0" xmlns="http://www.w3.org/2000/svg"
 width="500.000000pt" height="500.000000pt" viewBox="0 0 500.000000 500.000000"
 preserveAspectRatio="xMidYMid meet">

<g transform="translate(0.000000,500.000000) scale(0.100000,-0.100000)"
fill="#FF6200" stroke="none">
<path d="M1910 4879 c-615 -34 -1163 -120 -1346 -210 -123 -61 -220 -173 -263
-302 -47 -141 -105 -479 -141 -822 -64 -602 -66 -1427 -4 -2050 29 -301 76
-593 125 -789 47 -184 141 -306 291 -375 182 -85 616 -157 1203 -202 228 -17
972 -23 1235 -10 656 32 1210 115 1415 211 135 63 230 168 274 303 79 242 151
784 182 1365 15 281 6 1001 -15 1272 -44 544 -121 1009 -195 1164 -37 77 -111
161 -182 207 -147 94 -572 175 -1181 225 -226 18 -1151 27 -1398 13z m-992
-2038 c108 -55 136 -215 54 -313 -50 -59 -152 -84 -241 -58 -38 11 -95 60
-117 102 -21 40 -18 141 6 188 21 42 67 81 115 99 43 15 135 7 183 -18z m3232
-197 l0 -154 -300 0 -301 0 3 107 3 107 75 13 c41 7 172 30 290 52 118 21 218
36 223 34 4 -2 7 -74 7 -159z m-2500 -124 l0 -180 150 0 150 0 0 -140 0 -140
-151 0 -151 0 4 -282 c4 -313 8 -332 70 -364 31 -16 157 -22 198 -9 19 6 20 2
20 -133 0 -165 15 -150 -160 -159 -220 -11 -344 38 -425 167 -53 84 -58 121
-63 463 l-4 317 -84 0 -84 0 0 140 0 140 85 0 85 0 0 149 0 150 55 11 c89 19
258 48 283 49 l22 1 0 -180z m1140 -175 c171 -53 288 -177 319 -338 5 -29 12
-238 14 -464 l4 -413 -168 0 -169 0 0 48 c0 27 -2 51 -5 54 -3 3 -25 -12 -48
-34 -85 -78 -197 -106 -344 -88 -219 28 -345 177 -331 394 9 138 84 244 221
311 110 53 174 67 345 72 171 6 171 6 133 81 -44 85 -103 112 -245 112 -100 0
-234 -25 -345 -64 -24 -9 -45 -16 -47 -16 -2 0 -4 65 -4 145 l0 144 79 25 c70
22 128 34 236 50 69 10 301 -3 355 -19z m-1800 -610 l0 -605 -180 0 -180 0 0
605 0 605 180 0 180 0 0 -605z m2660 243 c0 -200 4 -390 10 -422 17 -106 71
-157 164 -157 85 0 128 29 165 111 20 43 21 64 21 438 l0 392 180 0 180 0 0
-605 0 -605 -169 0 c-188 0 -181 -3 -181 72 l0 40 -46 -41 c-87 -77 -188 -107
-319 -95 -128 11 -252 89 -305 194 -12 23 -30 76 -41 117 -17 70 -19 113 -19
500 l0 423 180 0 180 0 0 -362z"/>
<path d="M2599 1660 c-118 -15 -189 -73 -189 -153 0 -92 57 -141 165 -141 76
0 135 29 172 86 25 37 28 50 28 127 l0 86 -60 1 c-33 1 -85 -2 -116 -6z"/>
</g>
</svg>
