<svg width="31" height="31" viewBox="0 0 31 31" fill="none" xmlns="http://www.w3.org/2000/svg">
<path d="M28.0811 11.625H18.0833V9.40184L16.2758 10.0792C14.5697 7.80239 11.9025 6.45837 9.04167 6.45837C4.05601 6.45837 0 10.5144 0 15.5C0 20.4857 4.05601 24.5417 9.04167 24.5417C11.9025 24.5417 14.5697 23.1977 16.2758 20.9209L18.0833 21.5982V19.375H18.9966L20.0208 18.3508L21.3125 19.6425L22.6042 18.3508L23.8958 19.6425L25.1875 18.3508L26.2118 19.375H28.0811L31 15.5L28.0811 11.625Z" fill="#BD192B"/>
<path opacity="0.05" d="M28.3394 19.0521H26.3634L25.3244 18.0278L24.0143 19.3195L22.7042 18.0278L21.3941 19.3195L20.084 18.0278L19.0451 19.0521H18.0833V19.375H18.9965L20.0208 18.3507L21.3124 19.6424L22.6041 18.3507L23.8958 19.6424L25.1874 18.3507L26.2117 19.375H28.0811L28.3394 19.0521Z" fill="black"/>
<path opacity="0.05" d="M16.2855 20.598C14.5551 22.8748 11.8498 24.2188 8.94812 24.2188C5.79992 24.2188 3.01108 22.6458 1.35889 20.2561C2.95573 22.8235 5.80197 24.5418 9.04162 24.5418C11.9025 24.5418 14.5697 23.1978 16.2757 20.9209L18.0833 21.5983V21.2622L16.2855 20.598Z" fill="black"/>
<path opacity="0.2" d="M8.91428 6.78129C11.8308 6.78129 14.5499 8.1253 16.2891 10.4021L18.0833 9.74257V9.40183L16.2758 10.0792C14.5697 7.80239 11.9025 6.45837 9.04168 6.45837C6.1467 6.45837 3.55929 7.83124 1.90332 9.95425C3.59524 8.01588 6.11493 6.78129 8.91428 6.78129Z" fill="white"/>
<path opacity="0.2" d="M18.0833 11.9479H28.3241L29.1241 12.9289L28.0811 11.625H18.0833V11.9479Z" fill="white"/>
<path d="M5.16659 18.0834C6.59332 18.0834 7.74992 16.9268 7.74992 15.5001C7.74992 14.0733 6.59332 12.9167 5.16659 12.9167C3.73985 12.9167 2.58325 14.0733 2.58325 15.5001C2.58325 16.9268 3.73985 18.0834 5.16659 18.0834Z" fill="white"/>
<path opacity="0.1" d="M5.16659 13.2397C6.53606 13.2397 7.66485 14.1517 7.74992 15.5001C7.74992 14.0753 6.59133 12.9167 5.16659 12.9167C3.74184 12.9167 2.58325 14.0753 2.58325 15.5001C2.66832 14.1517 3.79711 13.2397 5.16659 13.2397Z" fill="black"/>
<path d="M28.0811 11.1667H18.0833V8.94346L16.2758 9.62083C14.5697 7.34401 11.9025 6 9.04167 6C4.05601 6 0 10.056 0 15.0417C0 20.0273 4.05601 24.0833 9.04167 24.0833C11.9025 24.0833 14.5697 22.7393 16.2758 20.4625L18.0833 21.1399V18.9167H18.9966L20.0208 17.8924L21.3125 19.1841L22.6042 17.8924L23.8958 19.1841L25.1875 17.8924L26.2118 18.9167H28.0811L31 15.0417L28.0811 11.1667Z" fill="url(#paint0_linear_312_56)"/>
<defs>
<linearGradient id="paint0_linear_312_56" x1="1.37945" y1="10.08" x2="27.61" y2="22.3115" gradientUnits="userSpaceOnUse">
<stop stop-color="white" stop-opacity="0.2"/>
<stop offset="1" stop-color="white" stop-opacity="0"/>
</linearGradient>
</defs>
</svg>
