<svg width="26" height="26" viewBox="0 0 26 26" fill="none" xmlns="http://www.w3.org/2000/svg">
<path d="M21.9375 15.4375C21.9375 14.95 22.2625 14.625 22.75 14.625H25.675C25.025 13.1625 23.6437 12.1875 21.9375 12.1875H19.9062L17.0625 8.775C16.25 7.88125 15.1125 7.3125 13.8938 7.3125H7.71875C6.175 7.3125 4.79375 8.20625 4.0625 9.5875L2.7625 12.1875H2.4375C1.05625 12.1875 0 13.2437 0 14.625V17.875C0 18.7688 0.73125 19.5 1.625 19.5H2.51875C2.84375 20.8813 4.14375 21.9375 5.6875 21.9375C7.23125 21.9375 8.45 20.8813 8.85625 19.5H15.6C15.925 20.8813 17.225 21.9375 18.7688 21.9375C20.3125 21.9375 21.5312 20.8813 21.9375 19.5H24.375C25.2688 19.5 26 18.7688 26 17.875V16.25H22.75C22.2625 16.25 21.9375 15.925 21.9375 15.4375ZM5.6875 20.3125C4.79375 20.3125 4.0625 19.5813 4.0625 18.6875C4.0625 17.7937 4.79375 17.0625 5.6875 17.0625C6.58125 17.0625 7.3125 17.7937 7.3125 18.6875C7.3125 19.5813 6.58125 20.3125 5.6875 20.3125ZM7.6375 12.1875H4.55L5.525 10.3187C5.93125 9.50625 6.74375 8.9375 7.71875 8.9375H9.2625L7.6375 12.1875ZM9.425 12.1875L11.05 8.9375H13.8938C14.625 8.9375 15.275 9.2625 15.7625 9.83125L17.7125 12.1875H9.425ZM18.6875 20.3125C17.7937 20.3125 17.0625 19.5813 17.0625 18.6875C17.0625 17.7937 17.7937 17.0625 18.6875 17.0625C19.5813 17.0625 20.3125 17.7937 20.3125 18.6875C20.3125 19.5813 19.5813 20.3125 18.6875 20.3125Z" fill="#BD192B"/>
</svg>
