<svg width="22" height="22" viewBox="0 0 22 22" fill="none" xmlns="http://www.w3.org/2000/svg">
<g clip-path="url(#clip0_790_69)">
<path d="M5.775 15.125L6.6 13.5438C6.94375 12.8563 7.63125 12.375 8.45625 12.375H10.8625C10.9313 12.375 11 12.375 11 12.375C12.2375 10.725 14.2312 9.625 16.5 9.625C17.325 9.625 18.0812 9.7625 18.8375 10.0375C18.5625 9.625 18.2188 9.2125 17.875 8.9375H18.5625C18.975 8.9375 19.25 8.6625 19.25 8.25C19.25 7.8375 18.975 7.5625 18.5625 7.5625H16.6375L15.8125 5.5C15.2625 4.2625 14.025 3.4375 12.65 3.4375H6.6C5.225 3.4375 3.9875 4.2625 3.4375 5.5L2.54375 7.5625H0.6875C0.275 7.5625 0 7.8375 0 8.25C0 8.6625 0.275 8.9375 0.6875 8.9375H1.375C0.55 9.55625 0 10.5875 0 11.6875V14.4375C0 15.0562 0.275 15.6063 0.6875 15.95V17.1875C0.6875 18.3562 1.58125 19.25 2.75 19.25H4.125C5.29375 19.25 6.1875 18.3562 6.1875 17.1875V16.5H9.625C9.625 16.0188 9.69375 15.5375 9.7625 15.125H5.775ZM4.8125 13.0625H2.75C2.3375 13.0625 2.0625 12.7875 2.0625 12.375C2.0625 11.9625 2.3375 11.6875 2.75 11.6875H4.8125C5.225 11.6875 5.5 11.9625 5.5 12.375C5.5 12.7875 5.225 13.0625 4.8125 13.0625ZM3.78125 8.25L4.74375 6.05C5.0875 5.29375 5.775 4.8125 6.6 4.8125H12.5812C13.4062 4.8125 14.1625 5.29375 14.5063 6.05L15.4688 8.25H3.78125Z" fill="#BD192B"/>
<path d="M21.7938 15.0562C21.725 14.7124 21.3125 14.5062 20.9688 14.5749C20.4875 14.7124 20.1438 14.5749 20.075 14.4374C20.0063 14.2999 20.075 13.9562 20.4188 13.5437C20.6938 13.2687 20.6938 12.8562 20.4188 12.5812C19.7313 11.8937 18.9063 11.4124 17.9438 11.1374C17.6 11.0687 17.1875 11.2749 17.1187 11.6187C16.9812 12.0999 16.7063 12.3062 16.5 12.3062C16.2937 12.3062 16.0875 12.0312 15.8813 11.6187C15.7438 11.2749 15.4 11.0687 15.0562 11.1374C14.0937 11.4124 13.2687 11.8937 12.5812 12.5812C12.3062 12.8562 12.3062 13.2687 12.5812 13.5437C12.925 13.8874 12.9937 14.2312 12.925 14.4374C12.8562 14.5749 12.5125 14.7124 12.0312 14.5749C11.6875 14.5062 11.275 14.7124 11.2062 15.0562C11.0687 15.5374 11 16.0187 11 16.4999C11 16.9812 11.0687 17.4624 11.2062 17.9437C11.275 18.2874 11.6875 18.4937 12.0312 18.4249C12.5125 18.2874 12.8562 18.4249 12.925 18.5624C12.9937 18.6999 12.925 19.0437 12.5812 19.4562C12.3062 19.7312 12.3062 20.1437 12.5812 20.4187C13.2687 21.1062 14.0937 21.5874 15.0562 21.8624C15.4 21.9312 15.8125 21.7249 15.8813 21.3812C16.0188 20.8999 16.2937 20.6937 16.5 20.6937C16.7063 20.6937 16.9125 20.9687 17.1187 21.3812C17.1875 21.6562 17.4625 21.8624 17.8062 21.8624C17.875 21.8624 17.9438 21.8624 18.0125 21.8624C18.975 21.5874 19.8 21.1062 20.4875 20.4187C20.7625 20.1437 20.7625 19.7312 20.4875 19.4562C20.1437 19.1124 20.075 18.7687 20.1437 18.5624C20.2125 18.4249 20.5563 18.2874 21.0375 18.4249C21.3813 18.4937 21.7937 18.2874 21.8625 17.9437C22 17.4624 22.0687 16.9812 22.0687 16.4999C22.0687 16.0187 21.9313 15.5374 21.7938 15.0562ZM16.5 18.5624C15.3313 18.5624 14.4375 17.6687 14.4375 16.4999C14.4375 15.3312 15.3313 14.4374 16.5 14.4374C17.6687 14.4374 18.5625 15.3312 18.5625 16.4999C18.5625 17.6687 17.6687 18.5624 16.5 18.5624Z" fill="#BD192B"/>
</g>
<defs>
<clipPath id="clip0_790_69">
<rect width="22" height="22" fill="white"/>
</clipPath>
</defs>
</svg>
