<svg width="22" height="22" viewBox="0 0 22 22" fill="none" xmlns="http://www.w3.org/2000/svg">
<g clip-path="url(#clip0_766_2)">
<path d="M13.8797 1.52557H7.76782C4.38853 1.52557 1.6394 5.72714 1.6394 10.8915C1.6394 16.0558 4.38853 20.2574 7.76782 20.2574H13.8797C17.259 20.2574 20.0083 16.0558 20.0083 10.8915C20.0083 5.72714 17.2588 1.52557 13.8797 1.52557ZM7.76782 2.17904H11.635C10.7132 2.73557 9.90073 3.62363 9.2599 4.74737L5.62663 6.46533L3.78974 4.91444C4.78867 3.23199 6.20212 2.17904 7.76782 2.17904ZM7.79113 9.83591L4.96576 11.5489L2.32554 9.9483C2.43903 8.28001 2.85006 6.75264 3.4715 5.50104L5.3659 7.10028C5.42602 7.15104 5.50117 7.17739 5.57675 7.17739C5.62402 7.17739 5.67172 7.16716 5.71637 7.14603L8.78396 5.69555C8.25334 6.90686 7.90331 8.31704 7.79113 9.83591ZM2.29592 10.6943L4.7963 12.2099C4.84835 12.2418 4.90695 12.2574 4.96576 12.2574C5.02436 12.2574 5.08317 12.2418 5.13501 12.2102L7.75562 10.6214C7.75388 10.7113 7.75105 10.8006 7.75105 10.8913C7.75105 12.5434 8.03356 14.0961 8.52693 15.445L6.5417 16.9887L3.06505 15.2616C3.0535 15.256 3.04131 15.2525 3.02954 15.2481C2.56188 13.9654 2.29265 12.4777 2.29265 10.891C2.29287 10.8255 2.29505 10.7601 2.29592 10.6943ZM7.76782 19.6039C5.99366 19.6039 4.41445 18.253 3.41334 16.1647L6.43497 17.6657C6.48093 17.6884 6.53081 17.6997 6.58026 17.6997C6.65148 17.6997 6.72228 17.6764 6.78087 17.6311L8.77917 16.0772C9.46901 17.6566 10.4642 18.8971 11.6348 19.6039H7.76782ZM13.8797 19.6039C11.9271 19.6039 10.2113 17.9678 9.24182 15.5132C9.23529 15.4612 9.21633 15.4102 9.18366 15.3649C8.68964 14.0564 8.40473 12.526 8.40473 10.8915C8.40473 6.08741 10.8607 2.17904 13.8797 2.17904C16.8987 2.17904 19.3549 6.08741 19.3549 10.8915C19.3546 15.6955 16.8987 19.6039 13.8797 19.6039Z" fill="#BD192B" stroke="#BD192B" stroke-width="2.2"/>
<path d="M13.8796 5.2243C12.1403 5.2243 10.7778 7.71379 10.7778 10.8916C10.7778 14.0696 12.1401 16.5591 13.8796 16.5591C15.6191 16.5591 16.9814 14.0696 16.9814 10.8916C16.9814 7.71379 15.6189 5.2243 13.8796 5.2243ZM13.8796 15.9054C12.5524 15.9054 11.4313 13.6094 11.4313 10.8914C11.4313 8.17361 12.5524 5.87755 13.8796 5.87755C15.2068 5.87755 16.3279 8.17361 16.3279 10.8914C16.3279 13.6094 15.2066 15.9054 13.8796 15.9054Z" fill="#BD192B" stroke="#BD192B" stroke-width="2.2"/>
</g>
<defs>
<clipPath id="clip0_766_2">
<rect width="22" height="22" fill="white"/>
</clipPath>
</defs>
</svg>
