<svg width="16" height="16" viewBox="0 0 16 16" fill="none" xmlns="http://www.w3.org/2000/svg">
<path d="M11.4672 6.58535C12.2672 6.07303 12.8 5.17863 12.8 4.16007C12.8 2.57191 11.5078 1.28007 9.91998 1.28007C9.64574 1.28007 9.37438 1.32103 9.11006 1.39943C8.52318 0.739268 7.6707 0.320068 6.71998 0.320068C4.9555 0.320068 3.51998 1.75559 3.51998 3.52007C3.51998 4.61799 4.07646 5.58855 4.92158 6.16487C3.02814 6.55399 1.59998 8.23335 1.59998 10.2401V15.6801H11.84V14.4001H14.4V10.5601C14.4 8.69319 13.1638 7.11015 11.4672 6.58535ZM9.51102 1.95847C9.64606 1.93287 9.7827 1.92007 9.91998 1.92007C11.1552 1.92007 12.16 2.92519 12.16 4.16007C12.16 5.39495 11.1552 6.40007 9.91998 6.40007C9.48062 6.40007 9.05758 6.27207 8.69566 6.03399C8.70046 6.03015 8.7043 6.02599 8.7091 6.02215C8.98366 5.80327 9.22078 5.54055 9.4115 5.24423C9.41886 5.23271 9.42558 5.22055 9.43294 5.20903C9.4867 5.12295 9.53662 5.03431 9.58206 4.94279C9.59038 4.92583 9.5987 4.90855 9.6067 4.89159C9.6483 4.80455 9.68574 4.71527 9.71966 4.62407C9.72734 4.60359 9.73502 4.58311 9.74238 4.56231C9.7731 4.47399 9.79902 4.38407 9.82206 4.29223C9.82814 4.26855 9.83486 4.24487 9.8403 4.22119C9.86046 4.13095 9.87614 4.03911 9.8883 3.94599C9.89182 3.92103 9.89694 3.89671 9.8995 3.87175C9.9123 3.75655 9.91998 3.63911 9.91998 3.52007C9.91998 3.39335 9.9107 3.26887 9.8963 3.14599C9.89182 3.10727 9.88446 3.06919 9.8787 3.03047C9.86526 2.94407 9.84926 2.85895 9.8291 2.77511C9.8195 2.73479 9.80926 2.69479 9.79806 2.65511C9.77182 2.56199 9.74142 2.47111 9.70718 2.38151C9.6979 2.35751 9.69054 2.33287 9.68062 2.30887C9.63198 2.19015 9.5763 2.07527 9.51422 1.96423C9.51294 1.96231 9.51198 1.96039 9.51102 1.95847ZM4.15998 3.52007C4.15998 2.10855 5.30846 0.960068 6.71998 0.960068C7.51262 0.960068 8.22174 1.32231 8.69182 1.88935L8.7123 1.91591C8.72798 1.93511 8.74174 1.95591 8.75678 1.97543C8.91934 2.18951 9.04382 2.42279 9.1315 2.66887C9.13758 2.68583 9.1443 2.70215 9.14974 2.71911C9.18782 2.83335 9.2163 2.95079 9.23774 3.06983C9.24222 3.09511 9.24574 3.12071 9.24958 3.14631C9.2675 3.26951 9.27998 3.39367 9.27998 3.52007C9.27998 3.62503 9.27198 3.72871 9.25918 3.83143C9.2563 3.85575 9.25182 3.87943 9.2483 3.90343C9.23518 3.98791 9.21886 4.07143 9.19742 4.15367C9.19294 4.17127 9.18878 4.18887 9.18398 4.20647C9.12606 4.41223 9.0435 4.60967 8.93726 4.79399C8.93502 4.79751 8.93278 4.80103 8.93086 4.80455C8.87934 4.89287 8.82238 4.97767 8.76062 5.05959C8.75486 5.06727 8.7491 5.07527 8.74334 5.08295C8.61278 5.25191 8.46078 5.40487 8.2899 5.53799C8.28094 5.54503 8.27166 5.55143 8.2627 5.55847C8.18142 5.61991 8.09662 5.67751 8.00766 5.72935C7.99742 5.73543 7.9875 5.74183 7.97726 5.74791L7.92766 5.77671C7.56734 5.96967 7.15646 6.08007 6.71998 6.08007C5.30846 6.08007 4.15998 4.93159 4.15998 3.52007ZM11.2 15.0401H2.23998V10.2401C2.23998 8.29927 3.81918 6.72007 5.75998 6.72007H7.67998C8.15838 6.72007 8.6147 6.81671 9.03102 6.99047L9.09246 7.01799C9.12798 7.03367 9.16222 7.05159 9.1971 7.06855C9.29214 7.11399 9.38398 7.16359 9.47358 7.21671C9.51422 7.24103 9.5555 7.26471 9.59518 7.29063C9.63774 7.31815 9.6787 7.34727 9.71998 7.37671C9.76254 7.40711 9.80446 7.43847 9.84574 7.47079C9.88254 7.49959 9.91902 7.52807 9.95454 7.55815C10.0086 7.60423 10.0608 7.65223 10.112 7.70151C10.1523 7.74023 10.1917 7.77991 10.2301 7.82055C10.2733 7.86631 10.3161 7.91239 10.3571 7.96007C10.3875 7.99591 10.4166 8.03239 10.4454 8.06919C10.4781 8.11079 10.5094 8.15303 10.5405 8.19623C10.5686 8.23527 10.5968 8.27431 10.6233 8.31463C10.6598 8.36999 10.6934 8.42727 10.7267 8.48455C10.7616 8.54471 10.7939 8.60583 10.8253 8.66791C10.8483 8.71335 10.8707 8.75911 10.8918 8.80583C10.9126 8.85191 10.9321 8.89895 10.9507 8.94599C10.9705 8.99623 10.9888 9.04711 11.0067 9.09831C11.0214 9.14119 11.0374 9.18375 11.0505 9.22727C11.0774 9.31655 11.1008 9.40711 11.1206 9.49895C11.1283 9.53415 11.1337 9.57031 11.1405 9.60583C11.1536 9.67687 11.1648 9.74855 11.1734 9.82087C11.1776 9.85479 11.1817 9.88871 11.1846 9.92295C11.1933 10.0276 11.2 10.1332 11.2 10.2401V14.4001V15.0401ZM13.76 13.7601H11.84V10.2401C11.84 10.0881 11.8307 9.93831 11.8147 9.79047C11.8109 9.75495 11.8035 9.72039 11.7987 9.68519C11.7833 9.57159 11.7657 9.45895 11.7414 9.34855C11.7331 9.31143 11.7222 9.27527 11.7129 9.23847C11.6861 9.13095 11.6566 9.02439 11.6217 8.92039C11.6096 8.88423 11.5955 8.84871 11.5824 8.81287C11.5449 8.71047 11.5043 8.60999 11.4592 8.51143C11.4425 8.47559 11.4253 8.44039 11.4077 8.40487C11.3603 8.30919 11.3097 8.21543 11.2553 8.12391C11.2345 8.08903 11.2137 8.05447 11.1923 8.01991C11.1353 7.93031 11.0749 7.84359 11.0115 7.75847C10.9875 7.72647 10.9645 7.69383 10.9398 7.66247C10.8701 7.57447 10.7961 7.49063 10.72 7.40871C10.6976 7.38471 10.6771 7.35975 10.6541 7.33607C10.5529 7.23271 10.4477 7.13351 10.3363 7.04103C12.2326 7.09223 13.76 8.65127 13.76 10.5601V13.7601Z" fill="#4A4A50"/>
</svg>
