<svg width="15" height="15" viewBox="0 0 15 15" fill="none" xmlns="http://www.w3.org/2000/svg">
<path d="M10.7505 6.17375C11.5005 5.69345 12 4.85495 12 3.90005C12 2.41115 10.7886 1.20005 9.3 1.20005C9.0429 1.20005 8.7885 1.23845 8.5407 1.31195C7.9905 0.693049 7.1913 0.300049 6.3 0.300049C4.6458 0.300049 3.3 1.64585 3.3 3.30005C3.3 4.32935 3.8217 5.23925 4.614 5.77955C2.8389 6.14435 1.5 7.71875 1.5 9.60005V14.7H11.1V13.5H13.5V9.90005C13.5 8.14985 12.3411 6.66575 10.7505 6.17375ZM8.9166 1.83605C9.0432 1.81205 9.1713 1.80005 9.3 1.80005C10.458 1.80005 11.4 2.74235 11.4 3.90005C11.4 5.05775 10.458 6.00005 9.3 6.00005C8.8881 6.00005 8.4915 5.88005 8.1522 5.65685C8.1567 5.65325 8.1603 5.64935 8.1648 5.64575C8.4222 5.44055 8.6445 5.19425 8.8233 4.91645C8.8302 4.90565 8.8365 4.89425 8.8434 4.88345C8.8938 4.80275 8.9406 4.71965 8.9832 4.63385C8.991 4.61795 8.9988 4.60175 9.0063 4.58585C9.0453 4.50425 9.0804 4.42055 9.1122 4.33505C9.1194 4.31585 9.1266 4.29665 9.1335 4.27715C9.1623 4.19435 9.1866 4.11005 9.2082 4.02395C9.2139 4.00175 9.2202 3.97955 9.2253 3.95735C9.2442 3.87275 9.2589 3.78665 9.2703 3.69935C9.2736 3.67595 9.2784 3.65315 9.2808 3.62975C9.2928 3.52175 9.3 3.41165 9.3 3.30005C9.3 3.18125 9.2913 3.06455 9.2778 2.94935C9.2736 2.91305 9.2667 2.87735 9.2613 2.84105C9.2487 2.76005 9.2337 2.68025 9.2148 2.60165C9.2058 2.56385 9.1962 2.52635 9.1857 2.48915C9.1611 2.40185 9.1326 2.31665 9.1005 2.23265C9.0918 2.21015 9.0849 2.18705 9.0756 2.16455C9.03 2.05325 8.9778 1.94555 8.9196 1.84145C8.9184 1.83965 8.9175 1.83785 8.9166 1.83605ZM3.9 3.30005C3.9 1.97675 4.9767 0.900049 6.3 0.900049C7.0431 0.900049 7.7079 1.23965 8.1486 1.77125L8.1678 1.79615C8.1825 1.81415 8.1954 1.83365 8.2095 1.85195C8.3619 2.05265 8.4786 2.27135 8.5608 2.50205C8.5665 2.51795 8.5728 2.53325 8.5779 2.54915C8.6136 2.65625 8.6403 2.76635 8.6604 2.87795C8.6646 2.90165 8.6679 2.92565 8.6715 2.94965C8.6883 3.06515 8.7 3.18155 8.7 3.30005C8.7 3.39845 8.6925 3.49565 8.6805 3.59195C8.6778 3.61475 8.6736 3.63695 8.6703 3.65945C8.658 3.73865 8.6427 3.81695 8.6226 3.89405C8.6184 3.91055 8.6145 3.92705 8.61 3.94355C8.5557 4.13645 8.4783 4.32155 8.3787 4.49435C8.3766 4.49765 8.3745 4.50095 8.3727 4.50425C8.3244 4.58705 8.271 4.66655 8.2131 4.74335C8.2077 4.75055 8.2023 4.75805 8.1969 4.76525C8.0745 4.92365 7.932 5.06705 7.7718 5.19185C7.7634 5.19845 7.7547 5.20445 7.7463 5.21105C7.6701 5.26865 7.5906 5.32265 7.5072 5.37125C7.4976 5.37695 7.4883 5.38295 7.4787 5.38865L7.4322 5.41565C7.0944 5.59655 6.7092 5.70005 6.3 5.70005C4.9767 5.70005 3.9 4.62335 3.9 3.30005ZM10.5 14.1H2.1V9.60005C2.1 7.78055 3.5805 6.30005 5.4 6.30005H7.2C7.6485 6.30005 8.0763 6.39065 8.4666 6.55355L8.5242 6.57935C8.5575 6.59405 8.5896 6.61085 8.6223 6.62675C8.7114 6.66935 8.7975 6.71585 8.8815 6.76565C8.9196 6.78845 8.9583 6.81065 8.9955 6.83495C9.0354 6.86075 9.0738 6.88805 9.1125 6.91565C9.1524 6.94415 9.1917 6.97355 9.2304 7.00385C9.2649 7.03085 9.2991 7.05755 9.3324 7.08575C9.3831 7.12895 9.432 7.17395 9.48 7.22015C9.5178 7.25645 9.5547 7.29365 9.5907 7.33175C9.6312 7.37465 9.6714 7.41785 9.7098 7.46255C9.7383 7.49615 9.7656 7.53035 9.7926 7.56485C9.8232 7.60385 9.8526 7.64345 9.8817 7.68395C9.9081 7.72055 9.9345 7.75715 9.9594 7.79495C9.9936 7.84685 10.0251 7.90055 10.0563 7.95425C10.089 8.01065 10.1193 8.06795 10.1487 8.12615C10.1703 8.16875 10.1913 8.21165 10.2111 8.25545C10.2306 8.29865 10.2489 8.34275 10.2663 8.38685C10.2849 8.43395 10.302 8.48165 10.3188 8.52965C10.3326 8.56985 10.3476 8.60975 10.3599 8.65055C10.3851 8.73425 10.407 8.81915 10.4256 8.90525C10.4328 8.93825 10.4379 8.97215 10.4442 9.00545C10.4565 9.07205 10.467 9.13925 10.4751 9.20705C10.479 9.23885 10.4829 9.27065 10.4856 9.30275C10.4937 9.40085 10.5 9.49985 10.5 9.60005V13.5V14.1ZM12.9 12.9H11.1V9.60005C11.1 9.45755 11.0913 9.31715 11.0763 9.17855C11.0727 9.14525 11.0658 9.11285 11.0613 9.07985C11.0469 8.97335 11.0304 8.86775 11.0076 8.76425C10.9998 8.72945 10.9896 8.69555 10.9809 8.66105C10.9557 8.56025 10.9281 8.46035 10.8954 8.36285C10.884 8.32895 10.8708 8.29565 10.8585 8.26205C10.8234 8.16605 10.7853 8.07185 10.743 7.97945C10.7274 7.94585 10.7112 7.91285 10.6947 7.87955C10.6503 7.78985 10.6029 7.70195 10.5519 7.61615C10.5324 7.58345 10.5129 7.55105 10.4928 7.51865C10.4394 7.43465 10.3827 7.35335 10.3233 7.27355C10.3008 7.24355 10.2792 7.21295 10.2561 7.18355C10.1907 7.10105 10.1214 7.02245 10.05 6.94565C10.029 6.92315 10.0098 6.89975 9.9882 6.87755C9.8934 6.78065 9.7947 6.68765 9.6903 6.60095C11.4681 6.64895 12.9 8.11055 12.9 9.90005V12.9Z" fill="#4A4A50"/>
</svg>
