<svg width="22" height="21" viewBox="0 0 22 21" fill="none" xmlns="http://www.w3.org/2000/svg">
<path d="M15.1112 19.7638C15.1112 20.2249 15.4973 20.5986 15.9736 20.5986C16.4498 20.5986 16.836 20.2249 16.836 19.7638V15.635C16.1754 15.6271 15.5996 15.5664 15.1112 15.4814V19.7638Z" fill="#4A4A50"/>
<path d="M17.1236 19.7638C17.1236 20.2249 17.5096 20.5986 17.986 20.5986C18.462 20.5986 18.8485 20.2249 18.8485 19.7638V15.4814C18.36 15.5664 17.7842 15.6271 17.1236 15.635V19.7638Z" fill="#4A4A50"/>
<path d="M18.4402 5.48868C18.6968 5.53288 19.4321 5.73396 20.2072 6.62098C20.2537 6.5516 20.288 6.473 20.3055 6.38691C20.379 6.02502 20.1354 5.67395 19.7616 5.60281C19.0894 5.47492 18.4023 5.37538 17.7311 5.29785C17.6869 5.31418 17.6422 5.32932 17.5966 5.34281C17.9895 5.38667 18.3124 5.45802 18.4402 5.48868Z" fill="#4A4A50"/>
<path d="M12.9525 14.7584L13.1279 13.924V12.7714C12.977 12.9332 12.7596 13.0344 12.5213 13.0344C12.4854 13.0344 12.4489 13.0321 12.413 13.0275C11.9654 12.9703 11.649 12.5711 11.708 12.1376C12.006 9.94995 12.5443 8.48033 13.1279 7.49312V6.36766C13.3614 6.36922 13.648 6.3732 13.9757 6.38174C14.6652 5.69589 15.2876 5.5279 15.5195 5.48797C15.6472 5.45731 15.9702 5.38596 16.363 5.3421C16.1909 5.29114 16.028 5.21949 15.8775 5.13004C14.173 5.01625 12.8217 5.02818 12.4929 5.03335C12.4824 5.03288 12.472 5.03182 12.4614 5.03182H9.1294C9.10876 5.03182 9.08839 5.03303 9.06822 5.03481L6.93916 5.04269C7.08773 5.125 7.24231 5.23186 7.39719 5.37268C7.68039 5.63025 7.92295 5.96481 8.12546 6.37399L8.46287 6.37274V7.24667C8.83975 8.50666 8.96432 10.2317 8.83276 12.4089C8.81605 12.6847 8.67418 12.9262 8.46287 13.0834V19.5674C8.46287 20.1376 8.9404 20.5995 9.52912 20.5995C10.118 20.5995 10.5955 20.1376 10.5955 19.5674V12.0316H10.9953V19.5674C10.9953 20.1376 11.4728 20.5995 12.0615 20.5995C12.6504 20.5995 13.1279 20.1376 13.1279 19.5674V14.8599C13.119 14.8549 13.1123 14.8511 13.1095 14.8495L12.9525 14.7584Z" fill="#4A4A50"/>
<path d="M10.7953 4.5564C11.8671 4.5564 12.7358 3.71549 12.7358 2.6781C12.7358 1.64072 11.8671 0.799805 10.7953 0.799805C9.72368 0.799805 8.85484 1.64072 8.85484 2.6781C8.85484 3.71549 9.72369 4.5564 10.7953 4.5564ZM12.0058 3.3987C11.7549 3.79201 11.3069 4.05554 10.7953 4.05554C10.2838 4.05554 9.83573 3.79202 9.58488 3.3987H12.0058Z" fill="#4A4A50"/>
<path d="M7.21999 5.55563C6.73719 5.11657 6.26541 5.04024 6.0221 5.03435C6.0077 5.03345 5.99338 5.03223 5.97877 5.03223H2.64677C2.63274 5.03223 2.6191 5.03343 2.60528 5.03425C2.36255 5.03969 1.88969 5.11516 1.40546 5.55563C0.293562 6.56684 -0.162166 8.86784 0.0510019 12.3947C0.0724765 12.7497 0.376519 13.0236 0.739095 13.0235C0.752653 13.0235 0.766383 13.0232 0.780027 13.0224C1.16046 13.0009 1.45077 12.6849 1.42853 12.3167C1.25124 9.38324 1.59467 7.81961 1.98023 7.04349V9.80575V11.3868V19.5679C1.98023 20.138 2.45777 20.5999 3.04649 20.5999C3.63537 20.5999 4.11291 20.138 4.11291 19.5679V12.032H4.51263V19.5679C4.51263 20.138 4.99016 20.5999 5.57888 20.5999C6.16776 20.5999 6.6453 20.138 6.6453 19.5679V11.3868V9.80575V7.04368C7.03082 7.81988 7.3742 9.3835 7.19691 12.3167C7.17468 12.6849 7.46499 13.0009 7.84542 13.0224C7.85915 13.0232 7.87271 13.0235 7.88635 13.0235C8.24893 13.0235 8.55297 12.7496 8.57444 12.3947C8.78761 8.86788 8.33188 6.56688 7.21999 5.55563Z" fill="#4A4A50"/>
<path d="M2.37221 2.6781C2.37221 3.71549 3.24105 4.5564 4.31269 4.5564C5.3845 4.5564 6.25316 3.71549 6.25316 2.6781C6.25316 1.64072 5.3845 0.799805 4.31269 0.799805C3.24105 0.799805 2.37221 1.64072 2.37221 2.6781ZM5.52313 3.3987C5.27227 3.79201 4.82423 4.05554 4.31269 4.05554C3.80114 4.05554 3.3531 3.79202 3.10224 3.3987H5.52313Z" fill="#4A4A50"/>
<path d="M18.3867 5.73293C18.2389 5.69715 17.6142 5.55566 16.9799 5.55566C16.3455 5.55566 15.7208 5.69715 15.5729 5.73293C15.1282 5.8061 12.7419 6.46391 11.9645 12.1701C11.9241 12.4672 12.1401 12.7398 12.447 12.779C12.7539 12.8183 13.0356 12.609 13.0761 12.3119C13.4327 9.69411 14.1287 8.3128 14.7238 7.58778L13.2426 14.6345C13.2426 14.6345 14.5374 15.3858 16.9798 15.3858C19.4223 15.3858 20.7171 14.6345 20.7171 14.6345L19.2365 7.59089C19.8302 8.3177 20.5278 9.7003 20.8836 12.3119C20.9208 12.585 21.1617 12.7837 21.4387 12.7837C21.4631 12.7837 21.4878 12.7821 21.5126 12.779C21.8196 12.7398 22.0356 12.4672 21.9951 12.1701C21.2178 6.46391 18.8315 5.8061 18.3867 5.73293Z" fill="#4A4A50"/>
<path d="M16.9798 5.18144C18.0039 5.18144 18.8341 4.37787 18.8341 3.38662C18.8341 2.39537 18.0039 1.5918 16.9798 1.5918C15.9558 1.5918 15.1256 2.39537 15.1256 3.38662C15.1256 4.37787 15.9558 5.18144 16.9798 5.18144ZM18.1902 4.03908C17.9394 4.43239 17.4913 4.69592 16.9798 4.69592C16.4683 4.69592 16.0202 4.4324 15.7694 4.03908H18.1902Z" fill="#4A4A50"/>
</svg>
