<svg width="21" height="18" viewBox="0 0 21 18" fill="none" xmlns="http://www.w3.org/2000/svg">
<g clip-path="url(#clip0_270_18)">
<path d="M14.4243 17.2405C14.4243 17.6597 14.7928 17.9994 15.2475 17.9994C15.7021 17.9994 16.0708 17.6597 16.0708 17.2405V13.487C15.4402 13.4798 14.8906 13.4246 14.4243 13.3474V17.2405Z" fill="#BD192B"/>
<path d="M16.3452 17.2405C16.3452 17.6597 16.7137 17.9994 17.1684 17.9994C17.6228 17.9994 17.9917 17.6597 17.9917 17.2405V13.3474C17.5254 13.4246 16.9758 13.4798 16.3452 13.487V17.2405Z" fill="#BD192B"/>
<path d="M17.602 4.26222C17.847 4.30241 18.5488 4.48521 19.2887 5.29159C19.3331 5.22851 19.3658 5.15706 19.3825 5.0788C19.4527 4.74981 19.2202 4.43065 18.8633 4.36598C18.2217 4.24972 17.5658 4.15922 16.9251 4.08875C16.883 4.10359 16.8402 4.11736 16.7968 4.12961C17.1717 4.16949 17.48 4.23435 17.602 4.26222Z" fill="#BD192B"/>
<path d="M12.3638 12.69L12.5312 11.9314V10.8836C12.3872 11.0307 12.1797 11.1226 11.9522 11.1227C11.9179 11.1227 11.8831 11.1206 11.8488 11.1164C11.4215 11.0644 11.1196 10.7015 11.1758 10.3074C11.4603 8.31862 11.9741 6.98261 12.5312 6.08514V5.062C12.7541 5.06341 13.0277 5.06703 13.3405 5.0748C13.9986 4.4513 14.5928 4.29858 14.8141 4.26228C14.936 4.2344 15.2443 4.16955 15.6193 4.12967C15.4549 4.08334 15.2995 4.01821 15.1558 3.93689C13.5288 3.83344 12.239 3.84429 11.9251 3.84899C11.9151 3.84856 11.9052 3.8476 11.895 3.8476H8.71446C8.69475 3.8476 8.67532 3.8487 8.65606 3.85031L6.62378 3.85748C6.7656 3.9323 6.91315 4.02945 7.06099 4.15747C7.33132 4.39163 7.56285 4.69577 7.75615 5.06775L8.07823 5.06662V5.86109C8.43798 7.00655 8.55688 8.57475 8.4313 10.5541C8.41535 10.8047 8.27993 11.0243 8.07823 11.1672V17.0618C8.07823 17.5801 8.53405 18.0001 9.09601 18.0001C9.65813 18.0001 10.114 17.5801 10.114 17.0618V10.211H10.4955V17.0618C10.4955 17.5801 10.9513 18.0001 11.5133 18.0001C12.0754 18.0001 12.5312 17.5801 12.5312 17.0618V12.7822C12.5227 12.7777 12.5163 12.7742 12.5137 12.7728L12.3638 12.69Z" fill="#BD192B"/>
<path d="M10.3047 3.41509C11.3278 3.41509 12.1569 2.65062 12.1569 1.70755C12.1569 0.764464 11.3278 0 10.3047 0C9.28174 0 8.45239 0.764464 8.45239 1.70755C8.45239 2.65062 9.28175 3.41509 10.3047 3.41509ZM11.4601 2.36264C11.2206 2.72019 10.793 2.95976 10.3047 2.95976C9.81638 2.95976 9.3887 2.7202 9.14925 2.36264H11.4601Z" fill="#BD192B"/>
<path d="M6.89181 4.32335C6.43095 3.92421 5.98062 3.85482 5.74837 3.84946C5.73462 3.84865 5.72096 3.84753 5.70701 3.84753H2.52646C2.51307 3.84753 2.50005 3.84863 2.48686 3.84937C2.25516 3.85432 1.80379 3.92292 1.34157 4.32335C0.280218 5.24264 -0.154795 7.33446 0.0486837 10.5407C0.0691822 10.8634 0.359405 11.1124 0.7055 11.1124C0.718441 11.1124 0.731547 11.112 0.744571 11.1113C1.10771 11.0918 1.38482 10.8045 1.3636 10.4698C1.19437 7.803 1.52218 6.38152 1.89022 5.67596V8.1871V9.62444V17.0617C1.89022 17.5801 2.34606 18 2.90801 18C3.47012 18 3.92596 17.5801 3.92596 17.0617V10.211H4.30751V17.0617C4.30751 17.5801 4.76334 18 5.32529 18C5.88741 18 6.34324 17.5801 6.34324 17.0617V9.62444V8.1871V5.67612C6.71124 6.38177 7.03901 7.80324 6.86978 10.4698C6.84856 10.8045 7.12567 11.0918 7.48881 11.1113C7.50192 11.112 7.51486 11.1124 7.52788 11.1124C7.87398 11.1124 8.1642 10.8633 8.1847 10.5407C8.38818 7.33449 7.95316 5.24267 6.89181 4.32335Z" fill="#BD192B"/>
<path d="M2.2644 1.70755C2.2644 2.65062 3.09375 3.41509 4.11668 3.41509C5.13978 3.41509 5.96895 2.65062 5.96895 1.70755C5.96895 0.764464 5.13978 0 4.11668 0C3.09375 0 2.2644 0.764464 2.2644 1.70755ZM5.2721 2.36264C5.03265 2.72019 4.60497 2.95976 4.11668 2.95976C3.62839 2.95976 3.20071 2.7202 2.96125 2.36264H5.2721Z" fill="#BD192B"/>
<path d="M17.5509 4.48513C17.4098 4.45259 16.8135 4.32397 16.208 4.32397C15.6025 4.32397 15.0061 4.45259 14.8651 4.48513C14.4405 4.55165 12.1627 5.14965 11.4207 10.3371C11.3821 10.6072 11.5882 10.855 11.8812 10.8906C12.1741 10.9264 12.443 10.7361 12.4817 10.466C12.8221 8.0862 13.4865 6.83046 14.0545 6.17136L12.6407 12.5775C12.6407 12.5775 13.8766 13.2605 16.208 13.2605C18.5394 13.2605 19.7754 12.5775 19.7754 12.5775L18.3621 6.17418C18.9288 6.83492 19.5947 8.09182 19.9343 10.466C19.9698 10.7143 20.1997 10.8949 20.4642 10.8949C20.4875 10.8949 20.511 10.8935 20.5347 10.8906C20.8278 10.855 21.0339 10.6072 20.9953 10.3371C20.2533 5.14965 17.9755 4.55165 17.5509 4.48513Z" fill="#BD192B"/>
<path d="M16.2081 3.98291C17.1856 3.98291 17.978 3.25239 17.978 2.35126C17.978 1.45012 17.1856 0.719604 16.2081 0.719604C15.2305 0.719604 14.4381 1.45012 14.4381 2.35126C14.4381 3.25239 15.2305 3.98291 16.2081 3.98291ZM17.3634 2.94441C17.124 3.30196 16.6963 3.54153 16.208 3.54153C15.7197 3.54153 15.2921 3.30197 15.0526 2.94441H17.3634Z" fill="#BD192B"/>
</g>
<defs>
<clipPath id="clip0_270_18">
<rect width="21" height="18" fill="white"/>
</clipPath>
</defs>
</svg>
