<svg width="17" height="17" viewBox="0 0 17 17" fill="none" xmlns="http://www.w3.org/2000/svg">
<path d="M3.54653 16.2927C3.34282 16.2923 3.14157 16.2482 2.95631 16.1635C2.7073 16.0526 2.49604 15.8716 2.34839 15.6424C2.20074 15.4133 2.1231 15.1461 2.125 14.8735V2.83325C2.12562 2.26985 2.3497 1.72971 2.74808 1.33133C3.14646 0.932947 3.68661 0.708866 4.25 0.708252H12.75C13.3134 0.708866 13.8535 0.932947 14.2519 1.33133C14.6503 1.72971 14.8744 2.26985 14.875 2.83325V14.8735C14.875 15.1457 14.7966 15.4121 14.6492 15.6409C14.5018 15.8696 14.2916 16.0511 14.0438 16.1636C13.796 16.2761 13.521 16.3148 13.2518 16.2751C12.9825 16.2354 12.7304 16.119 12.5255 15.9399L8.5 12.4176L4.47445 15.9399C4.21842 16.1665 3.88848 16.292 3.54653 16.2927ZM8.5 11.0021C8.84309 11.0015 9.17469 11.1257 9.43301 11.3514L13.4583 14.8735L13.463 14.8772L13.4583 2.83325C13.4582 2.64545 13.3834 2.46539 13.2507 2.3326C13.1179 2.1998 12.9378 2.12512 12.75 2.12493H4.25C4.0622 2.12512 3.88214 2.1998 3.74933 2.3326C3.61655 2.46539 3.54188 2.64545 3.54168 2.83325V14.8735L7.56722 11.3512C7.82544 11.1255 8.15701 11.0014 8.5 11.0021Z" fill="black"/>
</svg>
