<svg width="22" height="26" viewBox="0 0 22 26" fill="none" xmlns="http://www.w3.org/2000/svg">
<path d="M2.84133 25.8352C2.50582 25.8345 2.17435 25.7619 1.86921 25.6224C1.45908 25.4398 1.11112 25.1415 0.867927 24.7641C0.624737 24.3868 0.496872 23.9466 0.499995 23.4977V3.66666C0.501012 2.73871 0.870087 1.84906 1.52624 1.1929C2.1824 0.536743 3.07206 0.167668 3.99999 0.166656H18C18.9279 0.167668 19.8176 0.536743 20.4737 1.1929C21.1299 1.84906 21.499 2.73871 21.5 3.66666V23.4977C21.5 23.946 21.3709 24.3847 21.1281 24.7615C20.8853 25.1383 20.5391 25.4373 20.1309 25.6225C19.7228 25.8078 19.2699 25.8715 18.8264 25.8062C18.383 25.7408 17.9677 25.5491 17.6303 25.254L11 19.4526L4.36968 25.254C3.94799 25.6273 3.40456 25.834 2.84133 25.8352ZM11 17.1212C11.5651 17.1202 12.1112 17.3247 12.5367 17.6966L19.1666 23.4977L19.1744 23.5037L19.1666 3.66666C19.1664 3.35734 19.0433 3.06077 18.8246 2.84205C18.6059 2.62332 18.3093 2.50031 18 2.50001H3.99999C3.69068 2.50031 3.39411 2.62332 3.17536 2.84205C2.95667 3.06077 2.83367 3.35734 2.83335 3.66666V23.4977L9.46366 17.6963C9.88896 17.3245 10.4351 17.1201 11 17.1212Z" fill="#BD192B"/>
</svg>
