<svg width="24" height="24" viewBox="0 0 24 24" fill="none" xmlns="http://www.w3.org/2000/svg">
<path d="M9.5256 16.8261L5.8336 16.8196L7.4216 14.0696L8.2716 14.561C8.36061 14.6124 8.46329 14.6351 8.56565 14.626C8.66802 14.6169 8.76509 14.5765 8.84367 14.5103C8.92225 14.444 8.97851 14.3552 9.0048 14.2559C9.03109 14.1565 9.02613 14.0515 8.9906 13.955L7.6601 10.3335C7.6197 10.2238 7.54209 10.1316 7.44078 10.0732C7.33946 10.0147 7.22086 9.9936 7.1056 10.0136L3.3056 10.6705C3.20439 10.6881 3.11104 10.7363 3.03823 10.8088C2.96543 10.8812 2.9167 10.9743 2.89867 11.0755C2.88064 11.1766 2.89419 11.2808 2.93748 11.3739C2.98076 11.4671 3.05168 11.5446 3.1406 11.596L3.9906 12.087L1.9706 15.587C1.66715 16.113 1.5073 16.7096 1.50708 17.3168C1.50686 17.924 1.66627 18.5207 1.96933 19.0469C2.2724 19.5731 2.70847 20.0104 3.23382 20.3149C3.75917 20.6195 4.35536 20.7806 4.9626 20.782L9.5221 20.7901C9.78731 20.7901 10.0417 20.6847 10.2292 20.4972C10.4167 20.3096 10.5221 20.0553 10.5221 19.7901V17.8261C10.5221 17.5614 10.4172 17.3076 10.2304 17.1202C10.0437 16.9327 9.79021 16.827 9.5256 16.8261Z" fill="#BD192B"/>
<path d="M22.028 15.605L19.746 11.668C19.6132 11.4388 19.3948 11.2717 19.1389 11.2034C18.883 11.1351 18.6104 11.1711 18.381 11.3035L16.681 12.2855C16.5672 12.3512 16.4673 12.4387 16.3873 12.543C16.3073 12.6473 16.2486 12.7664 16.2147 12.8934C16.1808 13.0204 16.1722 13.1529 16.1895 13.2832C16.2068 13.4136 16.2496 13.5392 16.3155 13.653L18.1655 16.8405L14.97 16.835V15.86C14.9701 15.7571 14.9385 15.6568 14.8794 15.5726C14.8204 15.4884 14.7368 15.4244 14.6401 15.3894C14.5434 15.3544 14.4383 15.3501 14.339 15.3771C14.2398 15.404 14.1513 15.4609 14.0855 15.54L11.6155 18.504C11.5406 18.5939 11.4995 18.7072 11.4995 18.8242C11.4995 18.9413 11.5406 19.0546 11.6155 19.1445L14.0855 22.1085C14.1513 22.1876 14.2398 22.2444 14.339 22.2714C14.4383 22.2983 14.5434 22.294 14.6401 22.259C14.7368 22.224 14.8204 22.1601 14.8794 22.0759C14.9385 21.9917 14.9701 21.8913 14.97 21.7885V20.8L19.025 20.807H19.032C19.6409 20.8109 20.2398 20.6525 20.7671 20.3481C21.2944 20.0436 21.731 19.6042 22.032 19.075C22.3399 18.5486 22.502 17.9497 22.5016 17.3399C22.5011 16.7301 22.3382 16.1314 22.0295 15.6055L22.028 15.605Z" fill="#BD192B"/>
<path d="M7.07795 8.73699L8.77795 9.71849C8.89187 9.7842 9.01763 9.8268 9.14803 9.84384C9.27843 9.86088 9.41092 9.85204 9.53789 9.81781C9.66487 9.78358 9.78385 9.72464 9.88802 9.64436C9.99219 9.56409 10.0795 9.46406 10.145 9.34999L11.98 6.17199L13.58 8.93749L12.7445 9.41949C12.6555 9.47091 12.5846 9.54847 12.5413 9.64161C12.4981 9.73475 12.4845 9.83897 12.5025 9.94008C12.5206 10.0412 12.5693 10.1343 12.6421 10.2068C12.7149 10.2792 12.8083 10.3275 12.9095 10.345L16.7095 11.002C16.7377 11.007 16.7663 11.0095 16.795 11.0095C16.8972 11.0094 16.9971 10.978 17.0809 10.9194C17.1648 10.8609 17.2287 10.778 17.264 10.682L18.6 7.06349C18.6353 6.96709 18.6402 6.86214 18.6138 6.7629C18.5875 6.66365 18.5312 6.57493 18.4526 6.50878C18.3741 6.44264 18.2771 6.40228 18.1748 6.39319C18.0725 6.3841 17.9699 6.40673 17.881 6.45799L17.0155 6.95799L14.976 3.43899C14.6739 2.91098 14.2369 2.47276 13.7098 2.16921C13.1826 1.86566 12.5842 1.70769 11.976 1.71149C11.3677 1.70862 10.7697 1.8675 10.243 2.17184C9.7164 2.47619 9.28014 2.91506 8.97895 3.44349L6.71145 7.37049C6.64574 7.48427 6.60309 7.60988 6.58594 7.74015C6.5688 7.87042 6.57749 8.00279 6.61153 8.12969C6.64556 8.2566 6.70428 8.37555 6.78431 8.47976C6.86434 8.58396 6.96412 8.67137 7.07795 8.73699Z" fill="#BD192B"/>
</svg>
