<svg width="24" height="24" viewBox="0 0 24 24" fill="none" xmlns="http://www.w3.org/2000/svg">
<path d="M23.6568 17.9472L18.1579 4.18029C18.0876 4.01323 17.9733 3.8682 17.8152 3.74525C17.6568 3.62202 17.4896 3.56055 17.3139 3.56055H12.8436C12.9578 3.56055 13.0589 3.60221 13.1468 3.68567C13.2347 3.76936 13.283 3.86806 13.2919 3.98233L13.4898 6.51435C13.4986 6.63744 13.4636 6.73855 13.3847 6.81753C13.3054 6.89664 13.2087 6.93614 13.0943 6.93614H10.9053C10.7911 6.93614 10.6945 6.89664 10.6153 6.81753C10.5362 6.73859 10.5011 6.63744 10.51 6.51435L10.7078 3.98233C10.7165 3.86806 10.7647 3.76936 10.8528 3.68567C10.9407 3.60235 11.0417 3.56055 11.1561 3.56055H6.68573C6.50994 3.56055 6.34288 3.62202 6.1846 3.74525C6.02645 3.86806 5.91228 4.01323 5.84184 4.18029L0.342847 17.9472C0.114267 18.4922 0 19.002 0 19.4768C0 20.1186 0.202161 20.4394 0.606622 20.4394H9.89006C9.77579 20.4394 9.67921 20.3977 9.6 20.3142C9.52088 20.2305 9.48573 20.1319 9.49465 20.0174L9.75828 16.642C9.76706 16.5276 9.81542 16.4288 9.90331 16.3452C9.99116 16.2616 10.0924 16.2202 10.2066 16.2202H13.7932C13.9077 16.2202 14.0085 16.2616 14.0967 16.3452C14.1846 16.4288 14.2329 16.5276 14.2417 16.642L14.5056 20.0174C14.5146 20.1319 14.4791 20.2305 14.4002 20.3142C14.3212 20.3977 14.2244 20.4394 14.11 20.4394H23.3933C23.7977 20.4394 24 20.1186 24 19.4768C24 19.0022 23.8855 18.4923 23.6568 17.9472ZM13.9913 13.3185C13.9998 13.4241 13.9647 13.5119 13.8857 13.5821C13.8068 13.6526 13.7142 13.6877 13.6088 13.6877H10.3912C10.2856 13.6877 10.1932 13.6526 10.1142 13.5821C10.035 13.5117 9.99993 13.4238 10.0087 13.3185V13.2657L10.3252 9.04624C10.334 8.93193 10.3824 8.83309 10.4703 8.74953C10.5582 8.66598 10.6593 8.62428 10.7736 8.62428H13.2261C13.3406 8.62428 13.4417 8.66584 13.5296 8.74953C13.6174 8.83309 13.6658 8.93193 13.6747 9.04624L13.9912 13.2657V13.3185H13.9913Z" fill="#BD192B"/>
</svg>
