<svg width="22" height="22" viewBox="0 0 22 22" fill="none" xmlns="http://www.w3.org/2000/svg">
<path d="M9.69693 0.416875C7.56667 0.631496 5.5219 1.44974 4.0557 2.68381L3.73354 2.94538L4.25295 3.21366C4.70004 3.4417 4.91701 3.58925 5.62709 4.15263C5.77174 4.26665 5.78489 4.26665 6.13993 4.0319C6.88947 3.5423 7.88227 3.16 8.90794 2.95209C9.72323 2.78442 11.4458 2.78442 12.2545 2.95209C13.2013 3.13988 14.2204 3.53559 14.9305 3.97825L15.3053 4.21299L15.7195 3.86423C15.9496 3.67644 16.4164 3.38133 16.7583 3.20695L17.3698 2.89173L17.1528 2.70393C15.943 1.67778 14.135 0.859531 12.3795 0.544306C11.8075 0.443702 10.2032 0.363219 9.69693 0.416875Z" fill="#4A4A50"/>
<path d="M2.03722 3.12703C1.96489 3.20081 1.886 3.3819 1.86627 3.52945C1.82682 3.7709 1.78737 3.82455 1.53095 3.94528C1.11016 4.14649 0.965517 4.36781 1.00497 4.73669C1.02469 4.90437 1.05756 5.08545 1.08386 5.14582C1.11016 5.21959 1.02469 5.30678 0.787996 5.46104C0.485552 5.65554 0.459253 5.68908 0.459253 5.93053C0.459253 6.07808 0.492127 6.2927 0.531576 6.41342C0.597325 6.59451 0.59075 6.66158 0.498702 6.82255C0.38693 7.01705 0.340906 7.41276 0.413229 7.53348C0.59075 7.82858 2.6684 9.09619 2.97085 9.09619C3.17467 9.09619 3.33904 8.92181 3.39164 8.65353C3.42451 8.45903 3.39821 8.4255 2.86565 8.02979C2.55663 7.79505 2.30021 7.59384 2.30021 7.58043C2.30021 7.5536 2.721 7.82188 3.17467 8.14381C3.46396 8.35172 3.50341 8.36514 3.72038 8.29136C3.98995 8.19746 4.12145 8.01638 4.17405 7.6542C4.20692 7.38593 4.20692 7.38593 3.67436 6.94998C2.89852 6.31282 2.88537 6.23904 3.64806 6.82925L4.30554 7.33227L4.62114 7.25179C5.05508 7.13777 5.14712 7.03046 5.18 6.56768L5.2063 6.17198L4.69346 5.74273C3.86503 5.05863 3.8716 5.01839 4.70661 5.65554C5.19972 6.03113 5.34437 6.07137 5.64681 5.91041C5.86378 5.80309 5.91638 5.68908 5.91638 5.36715C5.91638 4.72999 5.1537 3.97881 3.9242 3.39531C3.01687 2.97278 2.29364 2.86546 2.03722 3.12703Z" fill="#4A4A50"/>
<path d="M17.5736 3.1874C16.1666 3.68371 15.0554 4.66292 15.0554 5.39397C15.0554 5.65554 15.2724 5.93053 15.5354 5.9976C15.7129 6.04454 15.7852 6.03113 15.9759 5.87687C16.4427 5.5147 16.8964 5.19276 16.8964 5.2263C16.8964 5.23971 16.6465 5.46104 16.3375 5.7092C15.8444 6.11161 15.7787 6.1988 15.7787 6.3866C15.7787 6.97681 15.9036 7.15789 16.423 7.27191C16.6926 7.33898 16.7189 7.32557 17.0476 7.05729C17.9747 6.30611 18.1785 6.21222 17.3566 6.92315C16.8767 7.33227 16.8306 7.39263 16.8306 7.61396C16.8306 7.95602 16.9556 8.15722 17.2383 8.27124L17.475 8.37184L18.093 7.94931C18.8031 7.46641 18.7768 7.54689 18.0601 8.09015C17.5999 8.43221 17.567 8.47245 17.5999 8.66024C17.6525 8.92852 17.8037 9.09619 18.001 9.09619C18.356 9.09619 20.3153 7.88224 20.552 7.52007C20.6769 7.32557 20.6375 6.99693 20.4731 6.80913C20.3876 6.70853 20.3876 6.65487 20.4863 6.2927C20.5915 5.91041 20.5915 5.87016 20.4863 5.7159C20.4271 5.62201 20.2627 5.48116 20.1181 5.40739C19.8814 5.28666 19.8617 5.25983 19.9208 5.09887C19.9603 5.00497 19.9866 4.79706 19.9866 4.62938C19.9866 4.28733 19.8091 4.066 19.4146 3.91845C19.2633 3.8648 19.1844 3.78431 19.1581 3.66359C19.0792 3.30812 19.0464 3.22093 18.9477 3.10691C18.79 2.92583 18.2179 2.95936 17.5736 3.1874Z" fill="#4A4A50"/>
<path d="M14.1021 3.97868C14.1284 4.04575 14.2204 4.32744 14.3059 4.60913C14.3914 4.89753 14.5229 5.19263 14.5886 5.27982L14.7135 5.43408L14.7596 5.20605C14.7859 5.07862 14.8713 4.85058 14.9568 4.70303L15.108 4.42804L14.8385 4.25366C14.5229 4.05246 14.1613 3.86466 14.0955 3.86466C14.0758 3.86466 14.0758 3.91832 14.1021 3.97868Z" fill="#4A4A50"/>
<path d="M6.60675 4.08544C6.4621 4.16592 6.2517 4.29335 6.13993 4.36713L5.93611 4.49456L6.08733 4.8299C6.17281 5.0177 6.24513 5.23232 6.24513 5.29939C6.24513 5.56096 6.49497 5.20549 6.63962 4.74271C6.88289 3.97813 6.89604 3.93118 6.88289 3.93118C6.87632 3.93788 6.75139 4.00495 6.60675 4.08544Z" fill="#4A4A50"/>
<path d="M10.0191 7.42603C9.01314 7.54004 8.15184 7.99611 6.37663 9.33079C5.59422 9.921 4.93016 10.2429 4.32527 10.3368C4.06228 10.3771 4.00968 10.4173 3.93078 10.5984C3.77956 10.9606 3.82558 11.6313 4.0294 12.0136C4.31212 12.5568 4.25295 12.53 4.79866 12.4093C6.58045 12.0337 8.737 13.5897 9.44708 15.7694C9.58516 16.1987 9.6246 16.4401 9.6246 16.9633L9.63118 17.6205L9.90075 17.748C10.2624 17.9291 10.9067 17.9291 11.2683 17.748L11.5379 17.6205L11.5445 16.9297C11.551 16.3731 11.5839 16.145 11.7154 15.756C12.4781 13.5494 14.582 12.0337 16.3638 12.4093C16.6334 12.4696 16.8635 12.5099 16.8701 12.4965C16.8767 12.4897 16.9819 12.302 17.1002 12.0806C17.2909 11.7386 17.3238 11.6111 17.3238 11.2423C17.3238 11.0008 17.2843 10.7124 17.2383 10.5984C17.1594 10.4173 17.1068 10.3771 16.8438 10.3368C16.6728 10.31 16.3244 10.2094 16.068 10.1088C15.6472 9.94112 15.3447 9.74662 13.7865 8.59974C12.4978 7.66077 11.2815 7.27847 10.0191 7.42603ZM11.413 8.19061C12.0507 8.50584 12.4912 9.33079 12.3992 10.0149C12.2677 11.0142 11.5445 11.6715 10.5845 11.6715C9.85472 11.6715 9.29586 11.3295 8.95397 10.6722C8.80932 10.3972 8.77645 10.2429 8.77645 9.83381C8.77645 9.39115 8.80275 9.28384 8.98027 8.96191C9.48653 8.04977 10.4925 7.72784 11.413 8.19061ZM11.5839 12.3355C12.1296 12.5702 12.1493 13.0397 11.6299 13.308C10.7686 13.7439 9.13807 13.4488 9.13807 12.8519C9.13807 12.6306 9.42078 12.3757 9.76268 12.2751C10.1835 12.1544 11.2486 12.1879 11.5839 12.3355Z" fill="#4A4A50"/>
<path d="M9.95991 8.41846C8.78959 8.96172 8.76329 10.6384 9.91389 11.2354C10.2689 11.4232 10.887 11.4232 11.2289 11.2488C12.1954 10.7458 12.3992 9.45803 11.6299 8.71356C11.1894 8.29102 10.4925 8.16359 9.95991 8.41846Z" fill="#4A4A50"/>
<path d="M9.7298 12.6036C9.40763 12.7177 9.38133 12.9323 9.6772 13.0597C10.0125 13.2073 11.2946 13.1871 11.5247 13.0329C11.7746 12.8719 11.7483 12.7512 11.4393 12.6238C11.1237 12.4963 10.0783 12.4829 9.7298 12.6036Z" fill="#4A4A50"/>
<path d="M20.5454 7.95571C20.4797 8.06973 19.1844 8.92151 18.8163 9.08918C18.5204 9.23003 18.4744 9.27698 18.4744 9.44465C18.4744 9.92755 18.0864 10.3702 17.6591 10.3702C17.5079 10.3702 17.4816 10.3903 17.521 10.4842C17.738 11.0744 17.6854 11.6244 17.3501 12.228C17.2449 12.4225 17.1594 12.5969 17.1594 12.617C17.1594 12.6304 17.2777 12.7243 17.429 12.8182C17.7314 13.0194 17.9418 13.4219 17.9484 13.8109C17.9484 14.4078 17.429 15.5211 16.7715 16.3125C16.114 17.1107 14.9502 18.0161 13.8062 18.6264C13.4643 18.8075 13.2868 18.8545 12.9186 18.8746C12.3006 18.9014 12.0639 18.774 11.814 18.271L11.6299 17.9021L11.3538 18.0429C10.9659 18.2374 10.2032 18.2374 9.81528 18.0429L9.53913 17.9021L9.35504 18.271C9.09862 18.7874 8.8685 18.9081 8.21759 18.8679C7.7968 18.8477 7.65872 18.8008 7.26423 18.5862C5.51532 17.607 4.2924 16.4534 3.65464 15.1925C3.1418 14.1663 3.0892 13.4286 3.50999 13.0261C3.62834 12.9121 3.79271 12.7713 3.87161 12.7176L4.01625 12.617L3.81901 12.2481C3.47054 11.5909 3.42452 11.0946 3.64806 10.4842C3.68751 10.3903 3.66121 10.3702 3.50999 10.3702C3.1155 10.3702 2.69471 9.94096 2.69471 9.53855C2.69471 9.3977 2.58951 9.31722 1.95833 8.96175C1.55068 8.73372 1.05757 8.4252 0.860325 8.28435C0.663079 8.1368 0.478983 8.0429 0.452684 8.06973C0.426384 8.10327 0.354061 8.31118 0.301462 8.53922C-0.119329 10.2159 -0.0996041 12.3823 0.360636 14.0925C1.28769 17.56 3.94393 20.397 7.30368 21.4903C8.474 21.8726 9.30244 22 10.5845 22C11.8666 21.9933 12.7214 21.8659 13.872 21.4903C16.9358 20.4977 19.5329 17.9021 20.598 14.7565C21.032 13.4755 21.1372 12.7981 21.1372 11.2086C21.1372 9.77329 21.0912 9.35746 20.7953 8.27094C20.6967 7.90206 20.6309 7.81487 20.5454 7.95571Z" fill="#4A4A50"/>
</svg>
