<svg width="31" height="31" viewBox="0 0 31 31" fill="none" xmlns="http://www.w3.org/2000/svg">
<path d="M15.88 1C7.67554 1 1 7.67554 1 15.88C1 20.2764 2.91828 24.2326 5.96 26.9588V26.9693L6.17576 27.1553C6.21358 27.1882 6.25512 27.2155 6.29356 27.2477C6.56078 27.4734 6.83606 27.6898 7.11878 27.8968C7.19504 27.9526 7.2713 28.0066 7.3488 28.0605C7.64888 28.2713 7.95578 28.4722 8.27074 28.6607C8.32344 28.6923 8.37738 28.7221 8.43008 28.7524C8.77542 28.9533 9.1282 29.1424 9.49028 29.3154C9.494 29.3173 9.49772 29.3185 9.50144 29.3204C10.2758 29.6893 11.088 29.9912 11.9287 30.2231C11.9442 30.2274 11.9597 30.2324 11.9752 30.2361C12.3727 30.3446 12.7769 30.4357 13.1867 30.5108C13.2252 30.5176 13.263 30.5244 13.3014 30.5312C13.697 30.6007 14.0975 30.6558 14.5036 30.6937C14.5501 30.698 14.5966 30.7005 14.6425 30.7042C15.0511 30.7383 15.4627 30.76 15.88 30.76C16.2973 30.76 16.7089 30.7383 17.1175 30.7042C17.164 30.7005 17.2105 30.698 17.2564 30.6937C17.6625 30.6565 18.063 30.6007 18.4586 30.5312C18.497 30.5244 18.5348 30.5176 18.5733 30.5108C18.9831 30.4357 19.3873 30.3446 19.7848 30.2361C19.8003 30.2318 19.8158 30.2274 19.8313 30.2231C20.672 29.9912 21.4842 29.6893 22.2586 29.3204C22.2623 29.3185 22.266 29.3173 22.2697 29.3154C22.6318 29.1424 22.9846 28.9527 23.3299 28.7524C23.3832 28.7214 23.4366 28.6923 23.4893 28.6607C23.8048 28.4722 24.1117 28.2707 24.4112 28.0605C24.4881 28.0066 24.565 27.9526 24.6412 27.8968C24.9239 27.6898 25.1992 27.4734 25.4664 27.2477C25.5049 27.2155 25.5464 27.1882 25.5842 27.1553L25.8 26.9693V26.9588C28.8417 24.232 30.76 20.2764 30.76 15.88C30.76 7.67554 24.0845 1 15.88 1ZM15.88 15.88C13.1452 15.88 10.92 13.6548 10.92 10.92C10.92 8.18518 13.1452 5.96 15.88 5.96C18.6148 5.96 20.84 8.18518 20.84 10.92C20.84 13.6548 18.6148 15.88 15.88 15.88ZM17.74 17.12C21.5003 17.12 24.56 20.1797 24.56 23.94V26.394C24.534 26.4157 24.5067 26.4355 24.4806 26.4572C24.2357 26.6562 23.9846 26.8453 23.728 27.0264C23.6709 27.0667 23.6151 27.1082 23.5581 27.1473C23.2809 27.3364 22.9964 27.5137 22.7068 27.6817C22.6541 27.7127 22.6008 27.7431 22.5475 27.7735C22.2437 27.944 21.9343 28.1039 21.6187 28.2502C21.5859 28.2657 21.5524 28.2806 21.5189 28.2955C20.4891 28.7636 19.4041 29.1027 18.2875 29.3036C18.2521 29.3098 18.2168 29.3166 18.1814 29.3228C17.8299 29.383 17.4753 29.4295 17.1181 29.4623C17.0692 29.4667 17.0196 29.4698 16.97 29.4735C16.6085 29.5014 16.2452 29.52 15.88 29.52C15.5148 29.52 15.1515 29.5014 14.79 29.4723C14.7411 29.4685 14.6915 29.4654 14.6419 29.4611C14.2847 29.4282 13.9301 29.3824 13.5786 29.3216C13.5432 29.3154 13.5079 29.3092 13.4725 29.3024C12.3559 29.1015 11.2709 28.7624 10.2411 28.2943C10.2076 28.2788 10.1741 28.2645 10.1413 28.249C9.8257 28.1027 9.51632 27.9427 9.21252 27.7722C9.1592 27.7418 9.1065 27.7115 9.05318 27.6805C8.76364 27.5131 8.47906 27.3351 8.20192 27.146C8.14426 27.107 8.08846 27.0654 8.03204 27.0251C7.77536 26.8441 7.52426 26.6556 7.27936 26.456C7.25332 26.4349 7.22604 26.4144 7.2 26.3927V23.94C7.2 20.1797 10.2597 17.12 14.02 17.12H17.74ZM25.8 25.2271V23.94C25.8 20.052 23.0323 16.7982 19.3644 16.0443C21.0018 14.9277 22.08 13.0472 22.08 10.92C22.08 7.50132 19.2987 4.72 15.88 4.72C12.4613 4.72 9.68 7.50132 9.68 10.92C9.68 13.0472 10.7582 14.9277 12.3956 16.0443C8.72768 16.7982 5.96 20.052 5.96 23.94V25.2271C3.65608 22.7837 2.24 19.4952 2.24 15.88C2.24 8.35878 8.35878 2.24 15.88 2.24C23.4012 2.24 29.52 8.35878 29.52 15.88C29.52 19.4952 28.1039 22.7837 25.8 25.2271Z" fill="#BD192B"/>
</svg>
